<svg xmlns="http://www.w3.org/2000/svg" xmlns:xlink="http://www.w3.org/1999/xlink" zoomAndPan="magnify" preserveAspectRatio="xMidYMid meet" version="1.0" viewBox="76.51 409.36 656.85 194.32"><defs><g/></defs><g fill="#ffffff" fill-opacity="1"><g transform="translate(129.883837, 602.317121)"><g><path d="M 10.578125 -1.96875 L 10.578125 -50.21875 C 10.578125 -50.832031 10.769531 -51.332031 11.15625 -51.71875 C 11.550781 -52.113281 12.054688 -52.3125 12.671875 -52.3125 L 31.875 -52.3125 L 9.359375 -89.59375 C 9.109375 -89.96875 8.984375 -90.296875 8.984375 -90.578125 C 8.984375 -90.828125 9.125 -91.015625 9.40625 -91.140625 C 9.695312 -91.265625 10.007812 -91.328125 10.34375 -91.328125 L 49.484375 -91.328125 C 52.960938 -91.328125 56.195312 -90.707031 59.1875 -89.46875 C 62.1875 -88.238281 64.816406 -86.515625 67.078125 -84.296875 C 69.335938 -82.085938 71.09375 -79.503906 72.34375 -76.546875 C 73.59375 -73.597656 74.21875 -70.398438 74.21875 -66.953125 C 74.21875 -63.421875 73.46875 -60.066406 71.96875 -56.890625 C 70.46875 -53.710938 68.382812 -50.914062 65.71875 -48.5 C 68.382812 -46.9375 70.710938 -45.003906 72.703125 -42.703125 C 74.691406 -40.410156 76.238281 -37.878906 77.34375 -35.109375 C 78.457031 -32.335938 79.015625 -29.457031 79.015625 -26.46875 C 79.015625 -22.976562 78.378906 -19.640625 77.109375 -16.453125 C 75.835938 -13.273438 74.039062 -10.445312 71.71875 -7.96875 C 69.40625 -5.488281 66.707031 -3.539062 63.625 -2.125 C 60.550781 -0.707031 57.191406 0 53.546875 0 L 12.796875 0 C 11.316406 0 10.578125 -0.65625 10.578125 -1.96875 Z M 53.421875 -41.84375 L 21.046875 -41.84375 L 21.046875 -10.46875 L 53.421875 -10.46875 C 55.472656 -10.46875 57.378906 -10.894531 59.140625 -11.75 C 60.898438 -12.613281 62.46875 -13.785156 63.84375 -15.265625 C 65.21875 -16.742188 66.285156 -18.445312 67.046875 -20.375 C 67.804688 -22.300781 68.1875 -24.332031 68.1875 -26.46875 C 68.1875 -29.207031 67.53125 -31.742188 66.21875 -34.078125 C 64.90625 -36.421875 63.128906 -38.300781 60.890625 -39.71875 C 58.660156 -41.132812 56.171875 -41.84375 53.421875 -41.84375 Z M 49.359375 -80.859375 L 27.8125 -80.859375 L 44.921875 -52.3125 L 49.234375 -52.3125 C 51.941406 -52.3125 54.359375 -52.945312 56.484375 -54.21875 C 58.617188 -55.488281 60.300781 -57.226562 61.53125 -59.4375 C 62.769531 -61.65625 63.390625 -64.160156 63.390625 -66.953125 C 63.390625 -69.660156 62.78125 -72.0625 61.5625 -74.15625 C 60.351562 -76.25 58.703125 -77.890625 56.609375 -79.078125 C 54.523438 -80.265625 52.109375 -80.859375 49.359375 -80.859375 Z M 49.359375 -80.859375 "/></g></g></g><g fill="#ffffff" fill-opacity="1"><g transform="translate(213.323376, 602.317121)"><g><path d="M 10.34375 -91.328125 L 48.734375 -91.328125 C 52.753906 -91.328125 56.46875 -90.546875 59.875 -88.984375 C 63.28125 -87.421875 66.265625 -85.296875 68.828125 -82.609375 C 71.390625 -79.921875 73.378906 -76.84375 74.796875 -73.375 C 76.210938 -69.914062 76.921875 -66.257812 76.921875 -62.40625 C 76.921875 -59.28125 76.394531 -56.25 75.34375 -53.3125 C 74.300781 -50.382812 72.828125 -47.671875 70.921875 -45.171875 C 69.015625 -42.671875 66.738281 -40.503906 64.09375 -38.671875 C 61.445312 -36.847656 58.546875 -35.484375 55.390625 -34.578125 L 75.203125 -1.359375 C 75.328125 -1.148438 75.4375 -0.941406 75.53125 -0.734375 C 75.632812 -0.535156 75.6875 -0.375 75.6875 -0.25 C 75.6875 -0.0820312 75.28125 0 74.46875 0 L 64.859375 0 C 64.242188 0 63.707031 -0.171875 63.25 -0.515625 C 62.800781 -0.867188 62.394531 -1.351562 62.03125 -1.96875 L 42.828125 -33.84375 L 21.046875 -33.84375 L 21.046875 -1.96875 C 21.046875 -0.65625 20.390625 0 19.078125 0 L 12.546875 0 C 11.160156 0 10.46875 -0.65625 10.46875 -1.96875 L 10.46875 -42.21875 C 10.46875 -42.832031 10.660156 -43.332031 11.046875 -43.71875 C 11.429688 -44.113281 11.929688 -44.3125 12.546875 -44.3125 L 36.546875 -44.3125 L 9.359375 -89.59375 C 9.109375 -89.96875 8.984375 -90.296875 8.984375 -90.578125 C 8.984375 -90.828125 9.125 -91.015625 9.40625 -91.140625 C 9.695312 -91.265625 10.007812 -91.328125 10.34375 -91.328125 Z M 48.734375 -80.859375 L 27.8125 -80.859375 L 49.59375 -44.3125 C 51.894531 -44.46875 54.050781 -45.085938 56.0625 -46.171875 C 58.070312 -47.265625 59.84375 -48.660156 61.375 -50.359375 C 62.914062 -52.066406 64.128906 -53.96875 65.015625 -56.0625 C 65.898438 -58.15625 66.34375 -60.3125 66.34375 -62.53125 C 66.34375 -64.820312 65.890625 -67.054688 64.984375 -69.234375 C 64.078125 -71.410156 62.820312 -73.378906 61.21875 -75.140625 C 59.625 -76.898438 57.757812 -78.289062 55.625 -79.3125 C 53.5 -80.34375 51.203125 -80.859375 48.734375 -80.859375 Z M 48.734375 -80.859375 "/></g></g></g><g fill="#ffffff" fill-opacity="1"><g transform="translate(297.870511, 602.317121)"><g><path d="M 21.171875 -54.640625 L 21.171875 -38.890625 L 62.03125 -38.890625 C 62.644531 -38.890625 63.125 -38.679688 63.46875 -38.265625 C 63.820312 -37.859375 64 -37.367188 64 -36.796875 L 64 -30.40625 C 64 -29.664062 63.789062 -29.109375 63.375 -28.734375 C 62.96875 -28.367188 62.519531 -28.1875 62.03125 -28.1875 L 21.171875 -28.1875 L 21.171875 -10.578125 L 72.25 -10.578125 C 73.070312 -10.578125 73.664062 -10.363281 74.03125 -9.9375 C 74.394531 -9.507812 74.578125 -8.988281 74.578125 -8.375 L 74.578125 -2.21875 C 74.578125 -1.394531 74.394531 -0.816406 74.03125 -0.484375 C 73.664062 -0.160156 73.113281 0 72.375 0 L 12.546875 0 C 11.160156 0 10.46875 -0.695312 10.46875 -2.09375 L 10.46875 -89.484375 C 10.46875 -90.179688 10.640625 -90.660156 10.984375 -90.921875 C 11.335938 -91.191406 11.859375 -91.328125 12.546875 -91.328125 L 72.734375 -91.328125 C 74.046875 -91.328125 74.703125 -90.671875 74.703125 -89.359375 L 74.703125 -82.953125 C 74.703125 -81.472656 74.003906 -80.734375 72.609375 -80.734375 L 21.171875 -80.734375 L 21.171875 -65.359375 L 62.03125 -65.359375 C 62.519531 -65.359375 62.96875 -65.191406 63.375 -64.859375 C 63.789062 -64.535156 64 -64.003906 64 -63.265625 L 64 -56.859375 C 64 -56.285156 63.820312 -55.769531 63.46875 -55.3125 C 63.125 -54.863281 62.644531 -54.640625 62.03125 -54.640625 Z M 21.171875 -54.640625 "/></g></g></g><g fill="#ffffff" fill-opacity="1"><g transform="translate(376.879638, 602.317121)"><g><path d="M 84.5625 0 L 7.390625 0 C 5.867188 0 5.109375 -0.507812 5.109375 -1.53125 C 5.109375 -2.15625 5.128906 -2.523438 5.171875 -2.640625 C 5.253906 -2.890625 5.296875 -3.015625 5.296875 -3.015625 L 43.265625 -89.71875 C 43.429688 -90.050781 43.65625 -90.410156 43.9375 -90.796875 C 44.226562 -91.191406 44.882812 -91.390625 45.90625 -91.390625 L 46.34375 -91.390625 C 47.15625 -91.390625 47.71875 -91.265625 48.03125 -91.015625 C 48.34375 -90.765625 48.546875 -90.492188 48.640625 -90.203125 C 48.742188 -89.921875 48.859375 -89.679688 48.984375 -89.484375 C 52.921875 -79.878906 57.03125 -70.265625 61.3125 -60.640625 C 65.601562 -51.023438 69.890625 -41.414062 74.171875 -31.8125 C 78.460938 -22.21875 82.582031 -12.617188 86.53125 -3.015625 L 86.46875 -3.078125 L 86.578125 -2.46875 C 86.617188 -2.257812 86.660156 -2.070312 86.703125 -1.90625 C 86.742188 -1.738281 86.765625 -1.613281 86.765625 -1.53125 C 86.765625 -0.507812 86.03125 0 84.5625 0 Z M 46.03125 -71.5625 L 20.125 -10.828125 L 71.75 -10.828125 Z M 46.03125 -71.5625 "/></g></g></g><g fill="#ffffff" fill-opacity="1"><g transform="translate(466.472545, 602.317121)"><g><path d="M 81.484375 -83.6875 C 82.210938 -83.070312 82.578125 -82.375 82.578125 -81.59375 C 82.578125 -81.1875 82.539062 -80.941406 82.46875 -80.859375 L 79.015625 -75.203125 C 78.691406 -74.828125 78.40625 -74.523438 78.15625 -74.296875 C 77.90625 -74.078125 77.660156 -73.96875 77.421875 -73.96875 C 76.960938 -73.96875 76.382812 -74.253906 75.6875 -74.828125 C 72.613281 -77.003906 69.382812 -78.65625 66 -79.78125 C 62.613281 -80.914062 59.035156 -81.601562 55.265625 -81.84375 C 50.867188 -81.84375 46.742188 -81.207031 42.890625 -79.9375 C 39.035156 -78.664062 35.535156 -76.890625 32.390625 -74.609375 C 29.253906 -72.335938 26.554688 -69.671875 24.296875 -66.609375 C 22.046875 -63.554688 20.304688 -60.210938 19.078125 -56.578125 C 17.847656 -52.953125 17.234375 -49.191406 17.234375 -45.296875 C 17.234375 -41.109375 17.859375 -37.1875 19.109375 -33.53125 C 20.359375 -29.882812 22.109375 -26.582031 24.359375 -23.625 C 26.617188 -20.675781 29.265625 -18.132812 32.296875 -16 C 35.335938 -13.863281 38.632812 -12.222656 42.1875 -11.078125 C 45.738281 -9.929688 49.441406 -9.359375 53.296875 -9.359375 C 60.347656 -9.359375 66.953125 -11.328125 73.109375 -15.265625 L 75.6875 -16.859375 C 76.34375 -17.273438 76.835938 -17.484375 77.171875 -17.484375 C 77.421875 -17.484375 77.664062 -17.367188 77.90625 -17.140625 C 78.15625 -16.910156 78.441406 -16.613281 78.765625 -16.25 L 82.34375 -10.46875 C 82.5 -10.09375 82.578125 -9.679688 82.578125 -9.234375 C 82.578125 -8.492188 82.085938 -7.878906 81.109375 -7.390625 C 77.335938 -4.679688 73.148438 -2.546875 68.546875 -0.984375 C 63.953125 0.578125 58.988281 1.359375 53.65625 1.359375 C 48.445312 1.359375 43.492188 0.566406 38.796875 -1.015625 C 34.097656 -2.597656 29.800781 -4.8125 25.90625 -7.65625 C 22.007812 -10.507812 18.625 -13.894531 15.75 -17.8125 C 12.882812 -21.726562 10.671875 -26.023438 9.109375 -30.703125 C 7.546875 -35.378906 6.765625 -40.320312 6.765625 -45.53125 C 6.765625 -50.75 7.554688 -55.707031 9.140625 -60.40625 C 10.722656 -65.101562 12.945312 -69.410156 15.8125 -73.328125 C 18.6875 -77.242188 22.070312 -80.632812 25.96875 -83.5 C 29.863281 -86.375 34.171875 -88.601562 38.890625 -90.1875 C 43.609375 -91.769531 48.570312 -92.5625 53.78125 -92.5625 C 58.875 -92.5625 63.726562 -91.8125 68.34375 -90.3125 C 72.957031 -88.8125 77.335938 -86.601562 81.484375 -83.6875 Z M 54.40625 -54.15625 C 56 -54.15625 57.441406 -53.765625 58.734375 -52.984375 C 60.023438 -52.203125 61.0625 -51.164062 61.84375 -49.875 C 62.625 -48.582031 63.015625 -47.132812 63.015625 -45.53125 C 63.015625 -43.9375 62.625 -42.503906 61.84375 -41.234375 C 61.0625 -39.960938 60.023438 -38.945312 58.734375 -38.1875 C 57.441406 -37.425781 56 -37.046875 54.40625 -37.046875 C 52.84375 -37.046875 51.40625 -37.425781 50.09375 -38.1875 C 48.78125 -38.945312 47.734375 -39.972656 46.953125 -41.265625 C 46.171875 -42.554688 45.78125 -43.976562 45.78125 -45.53125 C 45.78125 -47.132812 46.171875 -48.582031 46.953125 -49.875 C 47.734375 -51.164062 48.78125 -52.203125 50.09375 -52.984375 C 51.40625 -53.765625 52.84375 -54.15625 54.40625 -54.15625 Z M 54.40625 -54.15625 "/></g></g></g><g fill="#ffffff" fill-opacity="1"><g transform="translate(553.111827, 602.317121)"><g><path d="M 74.953125 -65.234375 L 74.953125 -89.359375 C 74.953125 -89.929688 75.144531 -90.398438 75.53125 -90.765625 C 75.925781 -91.140625 76.429688 -91.328125 77.046875 -91.328125 L 83.328125 -91.328125 C 83.898438 -91.328125 84.410156 -91.148438 84.859375 -90.796875 C 85.316406 -90.453125 85.546875 -89.972656 85.546875 -89.359375 L 85.546875 -1.96875 C 85.546875 -1.269531 85.378906 -0.765625 85.046875 -0.453125 C 84.722656 -0.148438 84.148438 0 83.328125 0 L 77.046875 0 C 75.648438 0 74.953125 -0.65625 74.953125 -1.96875 L 74.953125 -28.1875 L 20.921875 -28.1875 L 20.921875 -1.96875 C 20.921875 -0.65625 20.179688 0 18.703125 0 L 12.3125 0 C 11 0 10.34375 -0.65625 10.34375 -1.96875 L 10.34375 -89.359375 C 10.34375 -89.929688 10.515625 -90.398438 10.859375 -90.765625 C 11.210938 -91.140625 11.695312 -91.328125 12.3125 -91.328125 L 18.828125 -91.328125 C 19.398438 -91.328125 19.890625 -91.140625 20.296875 -90.765625 C 20.710938 -90.398438 20.921875 -89.929688 20.921875 -89.359375 L 20.921875 -65.234375 Z M 20.921875 -54.640625 L 20.921875 -38.890625 L 74.953125 -38.890625 L 74.953125 -54.640625 Z M 20.921875 -54.640625 "/></g></g></g><g fill="#ffffff" fill-opacity="1"><g transform="translate(65.681135, 506.308666)"><g><path d="M 78.515625 -68.328125 L 78.515625 -93.59375 C 78.515625 -94.195312 78.71875 -94.691406 79.125 -95.078125 C 79.53125 -95.460938 80.054688 -95.65625 80.703125 -95.65625 L 87.28125 -95.65625 C 87.882812 -95.65625 88.421875 -95.472656 88.890625 -95.109375 C 89.359375 -94.742188 89.59375 -94.238281 89.59375 -93.59375 L 89.59375 -2.0625 C 89.59375 -1.332031 89.421875 -0.804688 89.078125 -0.484375 C 88.734375 -0.160156 88.132812 0 87.28125 0 L 80.703125 0 C 79.242188 0 78.515625 -0.6875 78.515625 -2.0625 L 78.515625 -29.515625 L 21.921875 -29.515625 L 21.921875 -2.0625 C 21.921875 -0.6875 21.144531 0 19.59375 0 L 12.890625 0 C 11.515625 0 10.828125 -0.6875 10.828125 -2.0625 L 10.828125 -93.59375 C 10.828125 -94.195312 11.007812 -94.691406 11.375 -95.078125 C 11.738281 -95.460938 12.242188 -95.65625 12.890625 -95.65625 L 19.71875 -95.65625 C 20.320312 -95.65625 20.835938 -95.460938 21.265625 -95.078125 C 21.703125 -94.691406 21.921875 -94.195312 21.921875 -93.59375 L 21.921875 -68.328125 Z M 21.921875 -57.234375 L 21.921875 -40.734375 L 78.515625 -40.734375 L 78.515625 -57.234375 Z M 21.921875 -57.234375 "/></g></g></g><g fill="#ffffff" fill-opacity="1"><g transform="translate(165.330913, 506.308666)"><g><path d="M 88.5625 0 L 7.734375 0 C 6.140625 0 5.34375 -0.535156 5.34375 -1.609375 C 5.34375 -2.253906 5.367188 -2.640625 5.421875 -2.765625 C 5.503906 -3.023438 5.546875 -3.15625 5.546875 -3.15625 L 45.3125 -93.984375 C 45.488281 -94.328125 45.722656 -94.703125 46.015625 -95.109375 C 46.316406 -95.515625 47.007812 -95.71875 48.09375 -95.71875 L 48.546875 -95.71875 C 49.398438 -95.71875 49.988281 -95.585938 50.3125 -95.328125 C 50.632812 -95.078125 50.847656 -94.800781 50.953125 -94.5 C 51.066406 -94.195312 51.1875 -93.9375 51.3125 -93.71875 C 55.4375 -83.664062 59.742188 -73.597656 64.234375 -63.515625 C 68.722656 -53.441406 73.210938 -43.378906 77.703125 -33.328125 C 82.191406 -23.273438 86.5 -13.21875 90.625 -3.15625 L 90.5625 -3.21875 L 90.703125 -2.578125 C 90.742188 -2.359375 90.785156 -2.160156 90.828125 -1.984375 C 90.867188 -1.816406 90.890625 -1.691406 90.890625 -1.609375 C 90.890625 -0.535156 90.113281 0 88.5625 0 Z M 48.21875 -74.96875 L 21.078125 -11.34375 L 75.15625 -11.34375 Z M 48.21875 -74.96875 "/></g></g></g><g fill="#ffffff" fill-opacity="1"><g transform="translate(259.179592, 506.308666)"><g><path d="M 85.34375 -87.671875 C 86.113281 -87.023438 86.5 -86.289062 86.5 -85.46875 C 86.5 -85.039062 86.457031 -84.785156 86.375 -84.703125 L 82.765625 -78.765625 C 82.421875 -78.378906 82.117188 -78.066406 81.859375 -77.828125 C 81.609375 -77.597656 81.351562 -77.484375 81.09375 -77.484375 C 80.625 -77.484375 80.019531 -77.785156 79.28125 -78.390625 C 76.0625 -80.660156 72.675781 -82.382812 69.125 -83.5625 C 65.582031 -84.75 61.835938 -85.472656 57.890625 -85.734375 C 53.285156 -85.734375 48.960938 -85.066406 44.921875 -83.734375 C 40.890625 -82.398438 37.226562 -80.539062 33.9375 -78.15625 C 30.644531 -75.769531 27.816406 -72.976562 25.453125 -69.78125 C 23.097656 -66.582031 21.273438 -63.078125 19.984375 -59.265625 C 18.691406 -55.460938 18.046875 -51.519531 18.046875 -47.4375 C 18.046875 -43.0625 18.703125 -38.957031 20.015625 -35.125 C 21.328125 -31.300781 23.164062 -27.84375 25.53125 -24.75 C 27.894531 -21.65625 30.664062 -18.988281 33.84375 -16.75 C 37.019531 -14.519531 40.46875 -12.800781 44.1875 -11.59375 C 47.90625 -10.394531 51.785156 -9.796875 55.828125 -9.796875 C 63.210938 -9.796875 70.128906 -11.859375 76.578125 -15.984375 L 79.28125 -17.65625 C 79.96875 -18.09375 80.484375 -18.3125 80.828125 -18.3125 C 81.085938 -18.3125 81.347656 -18.191406 81.609375 -17.953125 C 81.867188 -17.710938 82.171875 -17.398438 82.515625 -17.015625 L 86.25 -10.953125 C 86.414062 -10.566406 86.5 -10.140625 86.5 -9.671875 C 86.5 -8.898438 85.984375 -8.253906 84.953125 -7.734375 C 81.003906 -4.898438 76.625 -2.664062 71.8125 -1.03125 C 67 0.601562 61.796875 1.421875 56.203125 1.421875 C 50.753906 1.421875 45.566406 0.59375 40.640625 -1.0625 C 35.722656 -2.71875 31.222656 -5.035156 27.140625 -8.015625 C 23.054688 -11.003906 19.507812 -14.550781 16.5 -18.65625 C 13.488281 -22.757812 11.164062 -27.257812 9.53125 -32.15625 C 7.90625 -37.0625 7.09375 -42.242188 7.09375 -47.703125 C 7.09375 -53.160156 7.914062 -58.347656 9.5625 -63.265625 C 11.21875 -68.191406 13.550781 -72.707031 16.5625 -76.8125 C 19.570312 -80.914062 23.117188 -84.46875 27.203125 -87.46875 C 31.285156 -90.476562 35.796875 -92.8125 40.734375 -94.46875 C 45.679688 -96.125 50.882812 -96.953125 56.34375 -96.953125 C 61.664062 -96.953125 66.742188 -96.164062 71.578125 -94.59375 C 76.410156 -93.03125 81 -90.722656 85.34375 -87.671875 Z M 56.984375 -56.71875 C 58.660156 -56.71875 60.175781 -56.3125 61.53125 -55.5 C 62.882812 -54.6875 63.96875 -53.601562 64.78125 -52.25 C 65.601562 -50.894531 66.015625 -49.378906 66.015625 -47.703125 C 66.015625 -46.023438 65.601562 -44.519531 64.78125 -43.1875 C 63.96875 -41.851562 62.882812 -40.789062 61.53125 -40 C 60.175781 -39.207031 58.660156 -38.8125 56.984375 -38.8125 C 55.347656 -38.8125 53.84375 -39.207031 52.46875 -40 C 51.09375 -40.789062 49.992188 -41.863281 49.171875 -43.21875 C 48.359375 -44.570312 47.953125 -46.066406 47.953125 -47.703125 C 47.953125 -49.378906 48.359375 -50.894531 49.171875 -52.25 C 49.992188 -53.601562 51.09375 -54.6875 52.46875 -55.5 C 53.84375 -56.3125 55.347656 -56.71875 56.984375 -56.71875 Z M 56.984375 -56.71875 "/></g></g></g><g fill="#ffffff" fill-opacity="1"><g transform="translate(349.934367, 506.308666)"><g><path d="M 21.203125 -92.5625 L 21.203125 -54.59375 L 58.140625 -93.59375 C 58.742188 -94.238281 59.300781 -94.753906 59.8125 -95.140625 C 60.332031 -95.523438 60.875 -95.71875 61.4375 -95.71875 L 70.515625 -95.71875 C 70.953125 -95.71875 71.546875 -95.617188 72.296875 -95.421875 C 73.046875 -95.234375 73.421875 -94.863281 73.421875 -94.3125 C 73.421875 -93.914062 73.25 -93.546875 72.90625 -93.203125 L 72.90625 -93.28125 L 49.640625 -68.78125 L 88.3125 -4.25 C 88.65625 -3.65625 88.828125 -3.015625 88.828125 -2.328125 C 88.828125 -1.722656 88.65625 -1.179688 88.3125 -0.703125 C 87.96875 -0.234375 87.34375 0 86.4375 0 L 79.796875 0 C 79.242188 0 78.738281 -0.203125 78.28125 -0.609375 C 77.832031 -1.015625 77.4375 -1.519531 77.09375 -2.125 C 73.3125 -8.394531 69.421875 -14.816406 65.421875 -21.390625 C 61.429688 -27.972656 57.4375 -34.5625 53.4375 -41.15625 C 49.4375 -47.75 45.546875 -54.1875 41.765625 -60.46875 L 21.203125 -38.671875 L 21.203125 -3.15625 C 21.203125 -1.050781 20.128906 0 17.984375 0 L 13.34375 0 C 11.28125 0 10.25 -1.050781 10.25 -3.15625 L 10.25 -92.5625 C 10.25 -93.425781 10.503906 -94.164062 11.015625 -94.78125 C 11.535156 -95.40625 12.3125 -95.71875 13.34375 -95.71875 L 18.046875 -95.71875 C 18.910156 -95.71875 19.648438 -95.425781 20.265625 -94.84375 C 20.890625 -94.269531 21.203125 -93.507812 21.203125 -92.5625 Z M 21.203125 -92.5625 "/></g></g></g><g fill="#ffffff" fill-opacity="1"><g transform="translate(439.593386, 506.308666)"><g/></g></g><g fill="#ffffff" fill-opacity="1"><g transform="translate(480.007598, 506.308666)"><g><path d="M 7.34375 -95.65625 L 74.640625 -95.65625 C 75.242188 -95.65625 75.769531 -95.492188 76.21875 -95.171875 C 76.675781 -94.847656 76.96875 -94.320312 77.09375 -93.59375 L 77.09375 -87.015625 C 77.09375 -86.285156 76.898438 -85.695312 76.515625 -85.25 C 76.128906 -84.800781 75.503906 -84.578125 74.640625 -84.578125 L 46.671875 -84.578125 L 46.671875 -2.1875 C 46.671875 -1.59375 46.460938 -1.078125 46.046875 -0.640625 C 45.640625 -0.210938 45.070312 0 44.34375 0 L 37.78125 0 C 37.175781 0 36.65625 -0.203125 36.21875 -0.609375 C 35.789062 -1.015625 35.578125 -1.539062 35.578125 -2.1875 L 35.578125 -84.578125 L 7.34375 -84.578125 C 6.695312 -84.578125 6.171875 -84.769531 5.765625 -85.15625 C 5.359375 -85.539062 5.15625 -86.160156 5.15625 -87.015625 L 5.15625 -93.59375 C 5.15625 -94.238281 5.359375 -94.742188 5.765625 -95.109375 C 6.171875 -95.472656 6.695312 -95.65625 7.34375 -95.65625 Z M 65.359375 -42.15625 L 15.859375 -42.15625 C 14.054688 -42.15625 13.15625 -42.84375 13.15625 -44.21875 L 13.15625 -51.046875 C 13.15625 -52.515625 14.097656 -53.25 15.984375 -53.25 L 65.234375 -53.25 C 67.035156 -53.25 67.9375 -52.515625 67.9375 -51.046875 L 67.9375 -44.21875 C 67.9375 -42.84375 67.078125 -42.15625 65.359375 -42.15625 Z M 65.359375 -42.15625 "/></g></g></g><g fill="#ffffff" fill-opacity="1"><g transform="translate(561.609538, 506.308666)"><g><path d="M 78.515625 -68.328125 L 78.515625 -93.59375 C 78.515625 -94.195312 78.71875 -94.691406 79.125 -95.078125 C 79.53125 -95.460938 80.054688 -95.65625 80.703125 -95.65625 L 87.28125 -95.65625 C 87.882812 -95.65625 88.421875 -95.472656 88.890625 -95.109375 C 89.359375 -94.742188 89.59375 -94.238281 89.59375 -93.59375 L 89.59375 -2.0625 C 89.59375 -1.332031 89.421875 -0.804688 89.078125 -0.484375 C 88.734375 -0.160156 88.132812 0 87.28125 0 L 80.703125 0 C 79.242188 0 78.515625 -0.6875 78.515625 -2.0625 L 78.515625 -29.515625 L 21.921875 -29.515625 L 21.921875 -2.0625 C 21.921875 -0.6875 21.144531 0 19.59375 0 L 12.890625 0 C 11.515625 0 10.828125 -0.6875 10.828125 -2.0625 L 10.828125 -93.59375 C 10.828125 -94.195312 11.007812 -94.691406 11.375 -95.078125 C 11.738281 -95.460938 12.242188 -95.65625 12.890625 -95.65625 L 19.71875 -95.65625 C 20.320312 -95.65625 20.835938 -95.460938 21.265625 -95.078125 C 21.703125 -94.691406 21.921875 -94.195312 21.921875 -93.59375 L 21.921875 -68.328125 Z M 21.921875 -57.234375 L 21.921875 -40.734375 L 78.515625 -40.734375 L 78.515625 -57.234375 Z M 21.921875 -57.234375 "/></g></g></g><g fill="#ffffff" fill-opacity="1"><g transform="translate(744.309759, 409.967953)"><g><path d="M -22.171875 57.234375 L -22.171875 40.734375 L -64.984375 40.734375 C -65.617188 40.734375 -66.117188 40.519531 -66.484375 40.09375 C -66.859375 39.664062 -67.046875 39.148438 -67.046875 38.546875 L -67.046875 31.84375 C -67.046875 31.070312 -66.828125 30.488281 -66.390625 30.09375 C -65.960938 29.707031 -65.492188 29.515625 -64.984375 29.515625 L -22.171875 29.515625 L -22.171875 11.09375 L -75.671875 11.09375 C -76.535156 11.09375 -77.160156 10.863281 -77.546875 10.40625 C -77.929688 9.957031 -78.125 9.410156 -78.125 8.765625 L -78.125 2.328125 C -78.125 1.460938 -77.929688 0.859375 -77.546875 0.515625 C -77.160156 0.171875 -76.582031 0 -75.8125 0 L -13.15625 0 C -11.6875 0 -10.953125 0.726562 -10.953125 2.1875 L -10.953125 93.71875 C -10.953125 94.457031 -11.132812 94.960938 -11.5 95.234375 C -11.863281 95.515625 -12.414062 95.65625 -13.15625 95.65625 L -76.1875 95.65625 C -77.5625 95.65625 -78.25 94.96875 -78.25 93.59375 L -78.25 86.890625 C -78.25 85.347656 -77.519531 84.578125 -76.0625 84.578125 L -22.171875 84.578125 L -22.171875 68.453125 L -64.984375 68.453125 C -65.492188 68.453125 -65.960938 68.28125 -66.390625 67.9375 C -66.828125 67.59375 -67.046875 67.035156 -67.046875 66.265625 L -67.046875 59.5625 C -67.046875 58.957031 -66.859375 58.414062 -66.484375 57.9375 C -66.117188 57.46875 -65.617188 57.234375 -64.984375 57.234375 Z M -22.171875 57.234375 "/></g></g></g></svg>