<svg width="842" height="264" viewBox="0 0 842 264" fill="none" xmlns="http://www.w3.org/2000/svg">
<g clip-path="url(#clip0_51_28)">
<mask id="mask0_51_28" style="mask-type:alpha" maskUnits="userSpaceOnUse" x="-9" y="122" width="861" height="143">
<rect x="851.159" y="264.461" width="859.32" height="142.111" transform="rotate(180 851.159 264.461)" fill="url(#paint0_linear_51_28)"/>
</mask>
<g mask="url(#mask0_51_28)">
<path d="M87.3982 243.684V182.734C87.3982 181.959 87.64 181.328 88.1284 180.839C88.6267 180.341 89.2631 180.089 90.0425 180.089H114.295L85.859 132.995C85.5432 132.521 85.3854 132.107 85.3854 131.752C85.3854 131.436 85.563 131.199 85.9182 131.041C86.2833 130.883 86.6779 130.804 87.1022 130.804H136.535C140.926 130.804 145.011 131.589 148.79 133.153C152.579 134.707 155.899 136.883 158.756 139.686C161.607 142.479 163.827 145.741 165.406 149.476C166.985 153.201 167.774 157.243 167.774 161.595C167.774 166.056 166.827 170.294 164.932 174.306C163.038 178.323 160.403 181.856 157.039 184.905C160.403 186.879 163.344 189.321 165.86 192.228C168.371 195.124 170.325 198.322 171.721 201.82C173.127 205.324 173.832 208.96 173.832 212.735C173.832 217.147 173.028 221.361 171.425 225.387C169.816 229.404 167.547 232.976 164.617 236.105C161.696 239.238 158.287 241.7 154.394 243.486C150.512 245.278 146.269 246.171 141.666 246.171H90.2004C88.3306 246.171 87.3982 245.342 87.3982 243.684ZM141.508 193.313H100.62V232.947H141.508C144.098 232.947 146.506 232.409 148.731 231.328C150.951 230.238 152.934 228.757 154.671 226.887C156.407 225.022 157.754 222.87 158.716 220.433C159.673 218 160.157 215.434 160.157 212.735C160.157 209.276 159.328 206.074 157.67 203.123C156.013 200.162 153.768 197.789 150.941 195.998C148.124 194.211 144.981 193.313 141.508 193.313ZM136.377 144.028H109.165L130.773 180.089H136.22C139.638 180.089 142.692 179.29 145.376 177.681C148.07 176.077 150.196 173.882 151.75 171.089C153.314 168.286 154.098 165.123 154.098 161.595C154.098 158.175 153.329 155.141 151.79 152.496C150.26 149.851 148.178 147.779 145.534 146.279C142.899 144.778 139.851 144.028 136.377 144.028Z" fill="white"/>
<path d="M192.483 130.804H240.969C246.046 130.804 250.737 131.791 255.039 133.765C259.341 135.739 263.11 138.423 266.347 141.818C269.583 145.213 272.094 149.101 273.885 153.483C275.671 157.855 276.569 162.473 276.569 167.339C276.569 171.286 275.903 175.115 274.576 178.826C273.259 182.527 271.399 185.951 268.991 189.109C266.584 192.267 263.707 195.006 260.367 197.32C257.023 199.624 253.362 201.347 249.376 202.491L274.398 244.454C274.556 244.72 274.694 244.982 274.813 245.243C274.941 245.495 275.01 245.697 275.01 245.855C275.01 246.067 274.497 246.171 273.471 246.171H261.334C260.555 246.171 259.879 245.954 259.302 245.519C258.734 245.075 258.221 244.463 257.763 243.684L233.51 203.419H206.001V243.684C206.001 245.342 205.172 246.171 203.514 246.171H195.266C193.514 246.171 192.641 245.342 192.641 243.684V192.84C192.641 192.065 192.883 191.433 193.371 190.945C193.855 190.446 194.486 190.195 195.266 190.195H225.577L191.24 132.995C190.924 132.521 190.766 132.107 190.766 131.752C190.766 131.436 190.944 131.199 191.299 131.041C191.664 130.883 192.059 130.804 192.483 130.804ZM240.969 144.028H214.546L242.054 190.195C244.96 189.997 247.684 189.218 250.224 187.846C252.76 186.464 255 184.703 256.934 182.556C258.878 180.4 260.412 177.997 261.532 175.352C262.647 172.707 263.209 169.983 263.209 167.181C263.209 164.289 262.637 161.467 261.492 158.713C260.348 155.965 258.759 153.478 256.736 151.252C254.724 149.032 252.365 147.275 249.672 145.982C246.988 144.68 244.087 144.028 240.969 144.028Z" fill="white"/>
<path d="M312.939 177.148V197.044H364.542C365.317 197.044 365.924 197.31 366.358 197.833C366.802 198.346 367.029 198.968 367.029 199.689V207.761C367.029 208.699 366.762 209.4 366.24 209.873C365.726 210.337 365.159 210.564 364.542 210.564H312.939V232.808H377.448C378.484 232.808 379.234 233.08 379.698 233.618C380.157 234.16 380.389 234.817 380.389 235.591V243.368C380.389 244.409 380.157 245.139 379.698 245.559C379.234 245.968 378.539 246.171 377.606 246.171H302.045C300.294 246.171 299.421 245.292 299.421 243.526V133.133C299.421 132.255 299.638 131.648 300.072 131.317C300.516 130.977 301.177 130.804 302.045 130.804H378.06C379.718 130.804 380.547 131.633 380.547 133.291V141.384C380.547 143.254 379.663 144.186 377.902 144.186H312.939V163.608H364.542C365.159 163.608 365.726 163.82 366.24 164.24C366.762 164.649 367.029 165.32 367.029 166.253V174.345C367.029 175.071 366.802 175.722 366.358 176.299C365.924 176.867 365.317 177.148 364.542 177.148H312.939Z" fill="white"/>
<path d="M492.784 246.171H395.319C393.395 246.171 392.438 245.529 392.438 244.237C392.438 243.447 392.463 242.983 392.517 242.835C392.621 242.519 392.675 242.362 392.675 242.362L440.628 132.837C440.835 132.418 441.121 131.964 441.476 131.475C441.842 130.977 442.67 130.725 443.963 130.725H444.515C445.542 130.725 446.252 130.883 446.647 131.199C447.041 131.515 447.298 131.86 447.416 132.225C447.545 132.581 447.693 132.887 447.85 133.133C452.823 145.267 458.013 157.411 463.42 169.569C468.837 181.718 474.254 193.856 479.661 205.985C485.078 218.104 490.283 230.233 495.271 242.362L495.192 242.283L495.33 243.052C495.379 243.319 495.434 243.556 495.488 243.763C495.537 243.975 495.567 244.133 495.567 244.237C495.567 245.529 494.639 246.171 492.784 246.171ZM444.121 155.772L411.402 232.493H476.603L444.121 155.772Z" fill="white"/>
<path d="M602.049 140.456C602.967 141.235 603.43 142.114 603.43 143.101C603.43 143.614 603.381 143.925 603.292 144.028L598.931 151.173C598.522 151.647 598.162 152.032 597.846 152.318C597.53 152.595 597.219 152.733 596.918 152.733C596.336 152.733 595.606 152.372 594.728 151.647C590.845 148.899 586.765 146.811 582.493 145.39C578.216 143.959 573.697 143.091 568.936 142.785C563.381 142.785 558.171 143.589 553.307 145.193C548.437 146.802 544.017 149.042 540.046 151.923C536.084 154.795 532.675 158.161 529.823 162.029C526.982 165.888 524.781 170.112 523.232 174.701C521.678 179.28 520.904 184.032 520.904 188.951C520.904 194.241 521.693 199.195 523.272 203.814C524.851 208.422 527.061 212.592 529.902 216.327C532.754 220.053 536.099 223.265 539.927 225.959C543.765 228.658 547.929 230.731 552.419 232.177C556.903 233.627 561.58 234.348 566.449 234.348C575.354 234.348 583.697 231.861 591.472 226.887L594.728 224.874C595.557 224.351 596.178 224.084 596.603 224.084C596.918 224.084 597.224 224.232 597.53 224.519C597.846 224.81 598.206 225.185 598.615 225.644L603.134 232.947C603.332 233.42 603.43 233.943 603.43 234.506C603.43 235.443 602.809 236.218 601.576 236.835C596.81 240.259 591.521 242.953 585.71 244.927C579.908 246.901 573.637 247.888 566.903 247.888C560.322 247.888 554.066 246.886 548.136 244.888C542.201 242.889 536.775 240.092 531.856 236.499C526.932 232.897 522.66 228.619 519.029 223.67C515.408 218.726 512.616 213.298 510.642 207.386C508.669 201.48 507.682 195.238 507.682 188.655C507.682 182.063 508.679 175.801 510.682 169.865C512.68 163.934 515.487 158.491 519.108 153.542C522.739 148.598 527.011 144.315 531.935 140.693C536.854 137.061 542.295 134.248 548.255 132.245C554.214 130.247 560.48 129.245 567.061 129.245C573.494 129.245 579.622 130.192 585.453 132.087C591.279 133.982 596.81 136.775 602.049 140.456ZM567.85 177.76C569.863 177.76 571.684 178.253 573.317 179.24C574.945 180.227 576.257 181.54 577.244 183.168C578.23 184.801 578.724 186.632 578.724 188.655C578.724 190.668 578.23 192.479 577.244 194.083C576.257 195.692 574.945 196.975 573.317 197.932C571.684 198.894 569.863 199.373 567.85 199.373C565.877 199.373 564.062 198.894 562.404 197.932C560.746 196.975 559.424 195.677 558.437 194.044C557.451 192.415 556.957 190.619 556.957 188.655C556.957 186.632 557.451 184.801 558.437 183.168C559.424 181.54 560.746 180.227 562.404 179.24C564.062 178.253 565.877 177.76 567.85 177.76Z" fill="white"/>
<path d="M703.223 163.766V133.291C703.223 132.571 703.465 131.979 703.953 131.515C704.451 131.041 705.088 130.804 705.867 130.804H713.8C714.52 130.804 715.167 131.031 715.734 131.475C716.311 131.91 716.602 132.516 716.602 133.291V243.684C716.602 244.567 716.39 245.204 715.971 245.598C715.561 245.983 714.836 246.171 713.8 246.171H705.867C704.101 246.171 703.223 245.342 703.223 243.684V210.564H634.983V243.684C634.983 245.342 634.046 246.171 632.181 246.171H624.11C622.452 246.171 621.624 245.342 621.624 243.684V133.291C621.624 132.571 621.841 131.979 622.275 131.515C622.719 131.041 623.331 130.804 624.11 130.804H632.339C633.059 130.804 633.681 131.041 634.194 131.515C634.717 131.979 634.983 132.571 634.983 133.291V163.766H703.223ZM634.983 177.148V197.044H703.223V177.148H634.983Z" fill="white"/>
</g>
<mask id="mask1_51_28" style="mask-type:alpha" maskUnits="userSpaceOnUse" x="-9" y="0" width="861" height="143">
<rect x="851.159" y="142.651" width="859.32" height="142.111" transform="rotate(180 851.159 142.651)" fill="url(#paint1_linear_51_28)"/>
</mask>
<g mask="url(#mask1_51_28)">
<path d="M92.1153 38.579V6.66323C92.1153 5.90333 92.3718 5.27666 92.8849 4.78815C93.398 4.30458 94.0591 4.05786 94.878 4.05786H103.186C103.946 4.05786 104.627 4.28978 105.219 4.74868C105.811 5.21251 106.107 5.84905 106.107 6.66323V122.286C106.107 123.209 105.889 123.875 105.455 124.28C105.021 124.689 104.261 124.892 103.186 124.892H94.878C93.0329 124.892 92.1153 124.023 92.1153 122.286V87.6074H20.6394V122.286C20.6394 124.023 19.6577 124.892 17.6991 124.892H9.23328C7.49671 124.892 6.62842 124.023 6.62842 122.286V6.66323C6.62842 5.90333 6.85536 5.27666 7.3191 4.78815C7.77791 4.30458 8.41433 4.05786 9.23328 4.05786H17.857C18.6167 4.05786 19.2679 4.30458 19.8106 4.78815C20.3632 5.27666 20.6394 5.90333 20.6394 6.66323V38.579H92.1153ZM20.6394 52.5928V73.4357H92.1153V52.5928H20.6394Z" fill="white"/>
<path d="M230.658 124.892H128.575C126.562 124.892 125.556 124.216 125.556 122.859C125.556 122.045 125.585 121.556 125.654 121.398C125.758 121.072 125.812 120.905 125.812 120.905L176.035 6.16964C176.257 5.73541 176.553 5.26171 176.923 4.74853C177.303 4.23535 178.176 3.97876 179.547 3.97876H180.12C181.195 3.97876 181.94 4.14653 182.35 4.4722C182.754 4.788 183.025 5.13835 183.159 5.5183C183.302 5.90318 183.455 6.22885 183.613 6.50518C188.822 19.2064 194.259 31.9224 199.932 44.6581C205.601 57.3839 211.269 70.095 216.943 82.7912C222.611 95.4924 228.053 108.194 233.263 120.905L233.184 120.826L233.361 121.635C233.411 121.911 233.465 122.163 233.519 122.385C233.569 122.597 233.598 122.755 233.598 122.859C233.598 124.216 232.616 124.892 230.658 124.892ZM179.705 30.1904L145.428 110.562H213.726L179.705 30.1904Z" fill="white"/>
<path d="M345.12 14.1438C346.092 14.963 346.581 15.8906 346.581 16.9268C346.581 17.4696 346.526 17.7904 346.423 17.894L341.864 25.3943C341.43 25.8828 341.045 26.2776 340.72 26.5786C340.404 26.8697 340.078 27.0128 339.753 27.0128C339.161 27.0128 338.396 26.6328 337.464 25.868C333.398 23.0011 329.121 20.825 324.637 19.3348C320.162 17.8348 315.431 16.9219 310.448 16.5913C304.631 16.5913 299.17 17.4351 294.069 19.1177C288.978 20.8053 284.35 23.1541 280.196 26.1641C276.037 29.179 272.465 32.7071 269.481 36.7434C266.506 40.7847 264.202 45.2109 262.574 50.0269C260.941 54.833 260.127 59.8118 260.127 64.9683C260.127 70.4948 260.956 75.6809 262.613 80.5216C264.271 85.3523 266.59 89.7193 269.579 93.6273C272.564 97.5354 276.062 100.906 280.078 103.733C284.089 106.551 288.445 108.722 293.141 110.246C297.838 111.761 302.737 112.516 307.843 112.516C317.167 112.516 325.904 109.911 334.05 104.7L337.464 102.588C338.332 102.036 338.983 101.759 339.417 101.759C339.743 101.759 340.073 101.912 340.404 102.213C340.73 102.519 341.114 102.914 341.548 103.397L346.265 111.056C346.472 111.544 346.581 112.082 346.581 112.674C346.581 113.651 345.929 114.465 344.627 115.122C339.639 118.704 334.109 121.527 328.031 123.589C321.953 125.652 315.381 126.688 308.317 126.688C301.435 126.688 294.883 125.642 288.662 123.55C282.451 121.457 276.767 118.531 271.612 114.766C266.452 110.992 261.972 106.511 258.173 101.325C254.37 96.1439 251.434 90.4595 249.372 84.2717C247.32 78.0741 246.293 71.5311 246.293 64.6327C246.293 57.7394 247.329 51.1865 249.411 44.974C251.503 38.7518 254.448 33.0476 258.252 27.8615C262.051 22.6804 266.53 18.1901 271.691 14.4004C276.846 10.6009 282.544 7.65015 288.78 5.55796C295.026 3.46577 301.597 2.41968 308.494 2.41968C315.214 2.41968 321.627 3.41643 327.735 5.40006C333.837 7.37383 339.634 10.2901 345.12 14.1438ZM309.303 53.2441C311.42 53.2441 313.334 53.7573 315.046 54.7837C316.753 55.81 318.124 57.1818 319.151 58.8891C320.187 60.6013 320.71 62.5159 320.71 64.6327C320.71 66.7545 320.187 68.6543 319.151 70.3369C318.124 72.0245 316.753 73.3667 315.046 74.3634C313.334 75.3651 311.42 75.8635 309.303 75.8635C307.236 75.8635 305.337 75.3651 303.6 74.3634C301.864 73.3667 300.473 72.0097 299.437 70.2974C298.41 68.5901 297.897 66.7003 297.897 64.6327C297.897 62.5159 298.41 60.6013 299.437 58.8891C300.473 57.1818 301.864 55.81 303.6 54.7837C305.337 53.7573 307.236 53.2441 309.303 53.2441Z" fill="white"/>
<path d="M378.733 7.96577V55.9283L425.383 6.66308C426.143 5.8489 426.849 5.19756 427.495 4.70905C428.151 4.22548 428.837 3.97876 429.547 3.97876H441.013C441.565 3.97876 442.315 4.10705 443.262 4.35378C444.21 4.59063 444.683 5.0594 444.683 5.75515C444.683 6.25846 444.466 6.72229 444.032 7.15652V7.05783L414.648 38.0065L463.489 119.523C463.924 120.273 464.141 121.082 464.141 121.951C464.141 122.716 463.924 123.401 463.489 124.003C463.055 124.596 462.266 124.892 461.121 124.892H452.735C452.034 124.892 451.398 124.635 450.82 124.122C450.253 123.609 449.755 122.972 449.321 122.207C444.545 114.288 439.631 106.175 434.579 97.8708C429.537 89.5563 424.495 81.232 419.444 72.9027C414.392 64.5734 409.478 56.4415 404.702 48.5069L378.733 76.041V120.905C378.733 123.564 377.376 124.892 374.668 124.892H368.807C366.202 124.892 364.899 123.564 364.899 120.905V7.96577C364.899 6.87526 365.22 5.94266 365.866 5.16302C366.523 4.37351 367.504 3.97876 368.807 3.97876H374.747C375.837 3.97876 376.769 4.34884 377.549 5.08407C378.338 5.80943 378.733 6.77164 378.733 7.96577Z" fill="white"/>
<path d="M525.507 4.05786H610.5C611.26 4.05786 611.926 4.26511 612.493 4.66973C613.071 5.07929 613.441 5.74543 613.599 6.66323V14.9728C613.599 15.8955 613.352 16.6406 612.868 17.2031C612.38 17.7706 611.591 18.0519 610.5 18.0519H575.177V122.129C575.177 122.879 574.91 123.53 574.387 124.083C573.874 124.625 573.154 124.892 572.237 124.892H563.948C563.184 124.892 562.527 124.635 561.975 124.122C561.432 123.609 561.166 122.948 561.166 122.129V18.0519H525.507C524.688 18.0519 524.027 17.8101 523.514 17.3216C523.001 16.838 522.744 16.0534 522.744 14.9728V6.66323C522.744 5.84905 523.001 5.21251 523.514 4.74868C524.027 4.28978 524.688 4.05786 525.507 4.05786ZM598.778 71.6396H536.262C533.983 71.6396 532.848 70.7711 532.848 69.0342V60.4089C532.848 58.5535 534.037 57.6259 536.42 57.6259H598.621C600.895 57.6259 602.035 58.5535 602.035 60.4089V69.0342C602.035 70.7711 600.949 71.6396 598.778 71.6396Z" fill="white"/>
<path d="M718.454 38.579V6.66323C718.454 5.90333 718.711 5.27666 719.224 4.78815C719.737 4.30458 720.398 4.05786 721.217 4.05786H729.525C730.285 4.05786 730.965 4.28978 731.557 4.74868C732.149 5.21251 732.445 5.84905 732.445 6.66323V122.286C732.445 123.209 732.228 123.875 731.794 124.28C731.36 124.689 730.6 124.892 729.525 124.892H721.217C719.372 124.892 718.454 124.023 718.454 122.286V87.6074H646.978V122.286C646.978 124.023 645.997 124.892 644.038 124.892H635.572C633.836 124.892 632.967 124.023 632.967 122.286V6.66323C632.967 5.90333 633.194 5.27666 633.658 4.78815C634.117 4.30458 634.753 4.05786 635.572 4.05786H644.196C644.956 4.05786 645.607 4.30458 646.149 4.78815C646.702 5.27666 646.978 5.90333 646.978 6.66323V38.579H718.454ZM646.978 52.5928V73.4357H718.454V52.5928H646.978Z" fill="white"/>
<path d="M822.033 75.4924V54.6494H767.963C767.164 54.6494 766.532 54.378 766.068 53.8402C765.595 53.2974 765.358 52.6461 765.358 51.8862V43.4187C765.358 42.4417 765.634 41.7065 766.187 41.2081C766.729 40.7196 767.321 40.4778 767.963 40.4778H822.033V17.2071H754.465C753.375 17.2071 752.585 16.916 752.097 16.3386C751.613 15.7712 751.367 15.0804 751.367 14.2662V6.13427C751.367 5.03883 751.613 4.27893 752.097 3.8447C752.585 3.41047 753.315 3.19336 754.287 3.19336H833.42C835.275 3.19336 836.202 4.11116 836.202 5.95663V121.58C836.202 122.512 835.975 123.149 835.512 123.494C835.053 123.85 834.357 124.027 833.42 124.027H753.814C752.077 124.027 751.209 123.159 751.209 121.422V112.954C751.209 111.005 752.131 110.033 753.971 110.033H822.033V89.664H767.963C767.321 89.664 766.729 89.4469 766.187 89.0127C765.634 88.5785 765.358 87.8729 765.358 86.9008V78.4333C765.358 77.6685 765.595 76.9826 766.068 76.3806C766.532 75.7885 767.164 75.4924 767.963 75.4924H822.033Z" fill="white"/>
</g>
</g>
<defs>
<linearGradient id="paint0_linear_51_28" x1="1280.82" y1="284.762" x2="1280.82" y2="406.572" gradientUnits="userSpaceOnUse">
<stop stop-color="#555555" stop-opacity="0.14"/>
<stop offset="0.4786" stop-color="white"/>
<stop offset="1" stop-color="white"/>
</linearGradient>
<linearGradient id="paint1_linear_51_28" x1="1280.82" y1="162.952" x2="1280.82" y2="284.762" gradientUnits="userSpaceOnUse">
<stop stop-color="#555555" stop-opacity="0.14"/>
<stop offset="0.4786" stop-color="white"/>
<stop offset="1" stop-color="white"/>
</linearGradient>
<clipPath id="clip0_51_28">
<rect width="842" height="264" fill="white"/>
</clipPath>
</defs>
</svg>
