<svg xmlns="http://www.w3.org/2000/svg" width="524" height="111" fill="none"><path fill="#050D4F" d="M58.486 47.555v-3.22h-15.82c-1.47 0-2.69.53-3.72 1.61-1.04 1.09-1.54 2.38-1.54 3.95v23.85c0 1.57.5 2.86 1.54 3.95 1.03 1.09 2.25 1.61 3.72 1.61h15.82v-3.22h-15.82c-.62 0-1.15-.23-1.59-.7-.43-.45-.65-1.01-.65-1.64v-23.85c0-.63.22-1.18.65-1.64.44-.46.97-.7 1.59-.7h15.82ZM79.234 89.085c1.04-1.11 1.54-2.43 1.54-4.02v-33.68h-3.07v22.3c0 .63-.22 1.19-.65 1.64-.44.46-.97.7-1.59.7h-8.42c-.62 0-1.15-.23-1.59-.7-.43-.45-.65-1.01-.65-1.64v-22.3h-3.07v22.3c0 1.56.51 2.86 1.57 3.97 1.05 1.1 2.27 1.64 3.75 1.64h10.66v5.76c0 .63-.22 1.19-.65 1.64-.44.46-.97.7-1.59.7h-8.68v3.32h8.68c1.5 0 2.73-.54 3.77-1.64l-.01.01Z"/><path fill="#006FD1" d="M89.307 79.305h10.65c1.47 0 2.69-.53 3.72-1.61 1.04-1.09 1.54-2.38 1.54-3.95v-8c0-1.56-.5-2.85-1.54-3.95-1.03-1.09-2.25-1.61-3.72-1.61h-10.65c-.61 0-1.14-.22-1.58-.66-.44-.44-.66-.99-.66-1.62v-8c0-.63.22-1.18.65-1.64.44-.46.97-.7 1.59-.7h10.65c.61 0 1.15.23 1.59.7.43.46.65 1.01.65 1.64v.99h3.02v-.99c0-1.56-.5-2.85-1.54-3.95-1.03-1.09-2.25-1.61-3.72-1.61h-10.65c-1.47 0-2.69.53-3.72 1.61-1.04 1.09-1.54 2.38-1.54 3.95v8c0 1.56.5 2.85 1.54 3.95 1.03 1.09 2.25 1.61 3.72 1.61h10.65c.61 0 1.14.22 1.58.66.44.44.66.99.66 1.62v8c0 .63-.22 1.19-.65 1.64-.44.46-.97.7-1.59.7h-10.65c-.62 0-1.15-.23-1.59-.7-.43-.45-.65-1.01-.65-1.64v-.99h-3.02v.99c0 1.56.5 2.86 1.54 3.95 1.03 1.09 2.25 1.61 3.72 1.61ZM113.787 79.305h4.61v-3.27h-4.61c-.62 0-1.15-.23-1.59-.7-.43-.45-.65-1.01-.65-1.64v-19.13h6.85v-3.27h-6.85v-9.44h-3.07v31.84c0 1.57.51 2.87 1.54 3.97s2.26 1.64 3.77 1.64ZM126.961 79.305h12.78v-22.4c0-1.56-.51-2.86-1.57-3.97-1.05-1.1-2.29-1.64-3.79-1.64h-12.73v3.27h12.73c.61 0 1.15.23 1.59.7.43.46.65 1.01.65 1.64v6.76h-14.98v10.03c0 1.56.51 2.86 1.57 3.97 1.05 1.1 2.27 1.64 3.75 1.64Zm-2.24-11.98v-.4h11.91v9.1h-9.67c-.62 0-1.15-.23-1.59-.7-.43-.45-.65-1.01-.65-1.64v-6.36ZM148.304 54.555h7.99v-3.27h-7.99c-1.47 0-2.7.54-3.75 1.64-1.05 1.11-1.57 2.41-1.57 3.97v22.4h3.07v-22.4c0-.63.22-1.19.65-1.64.44-.46.97-.7 1.59-.7h.01Z"/><path fill="#050D4F" d="M81.114 41.815c.36-.01.71-.03 1.07-.03-7.48-12.33-22.05-20.3-37.12-20.3-3.46 0-6.96.41-10.39 1.23-19.85 4.72-33.9 22.23-34.17 42.58-.27 20.54 13.3 38.52 33 43.73 3.73.99 7.57 1.49 11.41 1.49 13.08 0 26.07-5.9 33.09-15.04l.13-.17c-.5-.03-1.03-.06-1.55-.06-1.44 0-3.01.2-4.66 1.64-7.76 6.77-16.64 10.2-26.4 10.2-2.34 0-4.77-.2-7.21-.6-10.99-1.79-20.56-7.78-26.95-16.89-6.36-9.07-8.72-20.06-6.67-30.94 2.95-15.6 11.99-26.14 26.87-31.35 4.76-1.67 9.49-2.51 14.06-2.51 9.35 0 18.26 3.5 26.47 10.4 1.24 1.05 2.36 2.3 3.44 3.51.59.66 1.2 1.34 1.82 1.98l.06.06c.39.41.88.92 1.38 1 .37.05.76.08 1.25.08.35 0 .7-.01 1.07-.03v.02Z"/><path fill="#006FD1" d="m69.474 41.475-.02-.02c-5.71-6.44-14.88-10.3-24.52-10.3-7.93 0-15.39 2.58-21.56 7.47-7.39 5.84-12.01 14.22-13.01 23.59-1 9.34 1.78 18.78 7.64 25.9 6.67 8.1 16.53 12.75 27.06 12.75 6.61 0 12.88-1.82 17.66-5.11-1.08-.09-2.13-.18-3.15-.18-1.57 0-2.86.2-4.05.63-3.22 1.17-6.66 1.77-10.22 1.77-1.88 0-3.84-.17-5.82-.49-8.02-1.31-15.43-5.93-20.33-12.68-5.05-6.94-7.08-15.38-5.72-23.76 2.54-15.68 15.86-27.06 31.68-27.06 6.75 0 13.26 2.16 18.81 6.26 1.26.94 2.53 1.37 3.99 1.37.49 0 1.01-.05 1.57-.14h-.01Z"/><path fill="#050D4F" d="M177.228 58.185c-.92 0-1.79-.18-2.6-.54-.81-.36-1.51-.86-2.12-1.5a7.17 7.17 0 0 1-1.42-2.26 7.52 7.52 0 0 1-.51-2.79c0-1 .17-1.94.51-2.8.34-.86.81-1.61 1.42-2.25.6-.64 1.31-1.14 2.12-1.5a6.34 6.34 0 0 1 2.6-.54 6.42 6.42 0 0 1 3.67 1.16c.54.37.99.82 1.37 1.34l-1.64 1.73c-.45-.62-.96-1.08-1.53-1.39-.57-.31-1.19-.47-1.86-.47-.57 0-1.11.12-1.61.35-.5.24-.93.57-1.31 1-.37.43-.66.93-.88 1.5-.22.57-.32 1.19-.32 1.85 0 .66.11 1.29.32 1.86.21.57.5 1.07.88 1.5.38.43.81.77 1.31 1 .5.24 1.03.35 1.61.35.67 0 1.29-.16 1.86-.48.57-.32 1.08-.78 1.53-1.38l1.64 1.73c-.38.51-.83.96-1.37 1.33a6.326 6.326 0 0 1-3.67 1.17v.03ZM187.27 58.165c-.9 0-1.71-.23-2.42-.68-.71-.45-1.28-1.07-1.71-1.85-.43-.78-.64-1.65-.64-2.62 0-.97.2-1.86.59-2.63.39-.77.94-1.38 1.62-1.83a4.16 4.16 0 0 1 2.33-.68c.87 0 1.61.23 2.27.68.66.45 1.19 1.06 1.57 1.83.38.77.58 1.66.58 2.65v.59h-6.68c.08.5.25.93.48 1.31.23.38.54.66.9.87.37.21.76.31 1.19.31.43 0 .81-.08 1.18-.24.37-.16.68-.38.92-.67l1.51 1.45c-.56.52-1.14.9-1.73 1.14-.6.24-1.25.35-1.97.35l.01.02Zm-2.47-6.02h4.47c-.08-.45-.23-.83-.45-1.17-.21-.33-.47-.6-.78-.79-.3-.19-.65-.29-1.02-.29s-.72.09-1.03.28c-.31.18-.57.44-.77.78-.2.33-.34.73-.43 1.19h.01ZM192.58 57.975v-9.93h2.34v1.63c.35-.59.78-1.03 1.27-1.33.49-.3 1.04-.45 1.63-.45.59 0 1.17.15 1.64.45.47.3.85.71 1.12 1.24.27.52.41 1.13.41 1.83v6.58h-2.34v-5.87c0-.68-.17-1.22-.52-1.61-.35-.39-.81-.59-1.38-.59-.37 0-.71.09-1.03.27-.32.18-.59.44-.81.79v7.01h-2.34l.01-.02ZM206.359 58.165c-.97 0-1.71-.25-2.22-.75-.5-.5-.76-1.22-.76-2.16v-5.24h-1.84v-1.98h1.84v-2.73l2.34-.51v3.24h2.52v1.98h-2.52v4.71c0 .46.1.79.29.99.19.2.51.3.95.3.21 0 .4-.02.58-.05.18-.03.4-.09.67-.19v2.08a6.4 6.4 0 0 1-.91.22c-.34.05-.65.08-.93.08l-.01.01ZM209.102 57.975v-9.93h2.34v2.18c.28-.79.63-1.37 1.05-1.77.42-.39.91-.59 1.47-.59.19.01.36.03.49.05.13.02.28.08.44.17v2.18a2.931 2.931 0 0 0-1.2-.26c-.49 0-.92.13-1.31.4s-.7.64-.93 1.11v6.46H209.102ZM219.59 58.165c-.9 0-1.71-.23-2.42-.68-.71-.45-1.28-1.07-1.71-1.85-.43-.78-.64-1.65-.64-2.62 0-.97.2-1.86.59-2.63.39-.77.94-1.38 1.62-1.83a4.16 4.16 0 0 1 2.33-.68c.87 0 1.61.23 2.27.68.66.45 1.19 1.06 1.57 1.83.38.77.58 1.66.58 2.65v.59h-6.68c.08.5.25.93.48 1.31.23.38.54.66.9.87.37.21.76.31 1.19.31.43 0 .81-.08 1.18-.24.37-.16.68-.38.92-.67l1.51 1.45c-.56.52-1.14.9-1.73 1.14-.6.24-1.25.35-1.97.35l.01.02Zm-2.46-6.02h4.47c-.08-.45-.23-.83-.45-1.17-.21-.33-.47-.6-.78-.79-.3-.19-.65-.29-1.02-.29s-.72.09-1.03.28c-.31.18-.57.44-.77.78-.2.33-.34.73-.43 1.19h.01ZM229.322 57.975v-7.95h-1.97v-1.98h1.97v-1.57c0-1.1.29-1.95.87-2.54.58-.59 1.4-.89 2.47-.89.26 0 .51.02.77.05.26.03.48.08.68.15v2.1c-.26-.07-.46-.1-.62-.12-.16-.01-.32-.02-.49-.02-.46 0-.8.1-1.01.31-.21.21-.32.54-.32 1v1.53h2.45v1.98h-2.45v7.95H229.322ZM238.827 58.155c-.9 0-1.71-.22-2.42-.67a4.714 4.714 0 0 1-1.68-1.83c-.41-.77-.61-1.66-.61-2.65s.2-1.84.61-2.61c.41-.77.97-1.38 1.68-1.83.71-.45 1.51-.68 2.4-.68.89 0 1.7.23 2.4.68.7.45 1.25 1.07 1.66 1.84.41.78.61 1.65.61 2.62 0 .97-.2 1.85-.61 2.62s-.96 1.37-1.66 1.83c-.7.45-1.49.68-2.38.68Zm-.02-2.12c.46 0 .87-.13 1.23-.38s.64-.61.86-1.08c.22-.47.32-.98.32-1.54s-.1-1.11-.31-1.55c-.21-.44-.49-.8-.86-1.07s-.78-.4-1.24-.4c-.46 0-.88.13-1.24.39s-.65.62-.86 1.07c-.21.45-.31.96-.31 1.54 0 .58.1 1.1.31 1.56.21.46.49.82.86 1.08.37.26.78.38 1.24.38ZM244.641 57.975v-9.93h2.34v2.18c.28-.79.63-1.37 1.05-1.77.42-.39.91-.59 1.47-.59.19.01.36.03.49.05.13.02.28.08.44.17v2.18a2.931 2.931 0 0 0-1.2-.26c-.49 0-.92.13-1.31.4s-.7.64-.93 1.11v6.46H244.641ZM260.611 58.185c-.92 0-1.79-.18-2.6-.54-.81-.36-1.51-.86-2.12-1.5a7.17 7.17 0 0 1-1.42-2.26 7.52 7.52 0 0 1-.51-2.79c0-1 .17-1.94.51-2.8.34-.86.81-1.61 1.42-2.25.6-.64 1.31-1.14 2.12-1.5a6.34 6.34 0 0 1 2.6-.54 6.42 6.42 0 0 1 3.67 1.16c.54.37.99.82 1.37 1.34l-1.64 1.73c-.45-.62-.96-1.08-1.53-1.39-.57-.31-1.19-.47-1.86-.47-.57 0-1.11.12-1.61.35-.5.24-.93.57-1.31 1-.37.43-.66.93-.88 1.5-.22.57-.32 1.19-.32 1.85 0 .66.11 1.29.32 1.86.21.57.5 1.07.88 1.5.38.43.81.77 1.31 1 .5.24 1.03.35 1.61.35.67 0 1.29-.16 1.86-.48.57-.32 1.08-.78 1.53-1.38l1.64 1.73c-.38.51-.83.96-1.37 1.33a6.326 6.326 0 0 1-3.67 1.17v.03Z"/><path fill="#050D4F" d="M267.355 62.275c-.35 0-.72-.05-1.1-.16v-2.14a3.91 3.91 0 0 0 .82.1c.38 0 .68-.1.91-.29.23-.19.43-.46.58-.81l.33-.88-3.45-10.05h2.57l2.21 7.07 2.43-7.07h2.54l-4.34 11.46c-.26.68-.54 1.22-.84 1.63-.3.41-.67.7-1.1.87-.43.17-.95.27-1.56.27ZM275.719 57.975v-14l2.34-.41v5.79c.32-.45.72-.79 1.2-1.03.49-.24 1.02-.36 1.59-.36.78 0 1.48.23 2.1.69.62.46 1.11 1.07 1.48 1.83.37.76.55 1.61.55 2.55 0 .94-.19 1.78-.57 2.54-.38.77-.89 1.37-1.54 1.83-.65.45-1.38.68-2.18.68-.54 0-1.03-.12-1.49-.35-.46-.23-.85-.56-1.18-.98v1.24h-2.3v-.02Zm4.38-2c.51 0 .96-.13 1.34-.38.38-.25.69-.61.91-1.05.22-.45.34-.96.34-1.53 0-.57-.11-1.06-.34-1.5-.23-.44-.53-.79-.92-1.04s-.83-.38-1.33-.38c-.43 0-.81.09-1.16.26-.35.17-.64.42-.88.75v3.89c.25.31.56.56.91.74.35.18.73.26 1.13.26v-.02ZM290.489 58.165c-.9 0-1.71-.23-2.42-.68-.71-.45-1.28-1.07-1.71-1.85-.43-.78-.64-1.65-.64-2.62 0-.97.2-1.86.59-2.63.39-.77.94-1.38 1.62-1.83a4.16 4.16 0 0 1 2.33-.68c.87 0 1.61.23 2.27.68.66.45 1.19 1.06 1.57 1.83.38.77.58 1.66.58 2.65v.59h-6.68c.08.5.25.93.48 1.31.23.38.54.66.9.87.37.21.76.31 1.19.31.43 0 .81-.08 1.18-.24.37-.16.68-.38.92-.67l1.51 1.45c-.56.52-1.14.9-1.73 1.14-.6.24-1.25.35-1.97.35l.01.02Zm-2.46-6.02h4.47c-.08-.45-.23-.83-.45-1.17-.21-.33-.47-.6-.78-.79-.3-.19-.65-.29-1.02-.29s-.72.09-1.03.28c-.31.18-.57.44-.77.78-.2.33-.34.73-.43 1.19h.01ZM295.797 57.975v-9.93h2.34v2.18c.28-.79.63-1.37 1.05-1.77.42-.39.91-.59 1.47-.59.19.01.36.03.49.05.13.02.28.08.44.17v2.18a2.931 2.931 0 0 0-1.2-.26c-.49 0-.92.13-1.31.4s-.7.64-.93 1.11v6.46H295.797ZM305.656 58.165c-.8 0-1.55-.11-2.25-.33a5.36 5.36 0 0 1-1.82-.96l1.09-1.69c.62.39 1.15.67 1.6.84.45.17.9.25 1.36.25.51 0 .92-.11 1.22-.32.3-.22.46-.5.46-.85 0-.28-.09-.49-.27-.65-.18-.16-.47-.27-.88-.35l-1.66-.31c-.9-.17-1.57-.49-2.02-.96-.45-.47-.67-1.07-.67-1.81 0-.65.15-1.21.46-1.68.3-.46.73-.83 1.28-1.08.55-.25 1.19-.38 1.92-.38.65 0 1.27.1 1.88.29.61.2 1.21.49 1.81.88l-1.09 1.65a5.18 5.18 0 0 0-1.37-.72c-.45-.15-.91-.23-1.37-.23-.46 0-.79.09-1.04.27-.25.18-.38.43-.38.75 0 .27.08.49.25.64.17.15.47.26.91.32l1.66.35c.92.17 1.62.49 2.07.96.46.47.68 1.07.68 1.81 0 .63-.17 1.19-.51 1.69-.34.5-.8.89-1.37 1.18-.57.29-1.22.43-1.95.43v.01ZM314.84 58.165c-.9 0-1.71-.23-2.42-.68-.71-.45-1.28-1.07-1.71-1.85-.43-.78-.64-1.65-.64-2.62 0-.97.2-1.86.59-2.63.39-.77.94-1.38 1.62-1.83a4.16 4.16 0 0 1 2.33-.68c.87 0 1.61.23 2.27.68.66.45 1.19 1.06 1.57 1.83.38.77.58 1.66.58 2.65v.59h-6.68c.08.5.25.93.48 1.31.23.38.54.66.9.87.37.21.76.31 1.19.31.43 0 .81-.08 1.18-.24.37-.16.68-.38.92-.67l1.51 1.45c-.56.52-1.14.9-1.73 1.14-.6.24-1.25.35-1.97.35l.01.02Zm-2.46-6.02h4.47c-.08-.45-.23-.83-.45-1.17-.21-.33-.47-.6-.78-.79-.3-.19-.65-.29-1.02-.29s-.72.09-1.03.28c-.31.18-.57.44-.77.78-.2.33-.34.73-.43 1.19h.01ZM324.479 58.155c-.89 0-1.69-.23-2.39-.68a4.813 4.813 0 0 1-1.68-1.84c-.41-.78-.62-1.65-.62-2.6 0-.95.21-1.84.62-2.61.41-.77.97-1.39 1.68-1.84.71-.45 1.5-.69 2.39-.69.74 0 1.44.15 2.08.45.64.3 1.19.73 1.64 1.3l-1.42 1.57c-.32-.38-.66-.66-1.02-.85-.36-.19-.76-.29-1.19-.29-.47 0-.89.13-1.26.39s-.65.62-.87 1.06c-.21.45-.32.95-.32 1.51s.11 1.06.32 1.5c.21.44.5.79.87 1.06s.78.4 1.26.4c.43 0 .82-.09 1.19-.28.37-.19.71-.47 1.02-.85l1.42 1.59c-.45.54-1 .96-1.64 1.26-.65.3-1.34.45-2.08.45v-.01ZM332.017 58.135c-.62 0-1.17-.15-1.64-.44-.47-.29-.85-.71-1.11-1.24-.27-.53-.4-1.13-.4-1.82v-6.59h2.36v5.87c0 .68.17 1.22.5 1.62.33.4.79.6 1.36.6.39 0 .74-.09 1.05-.27.31-.18.58-.45.81-.81v-7.01h2.34v9.93h-2.34v-1.61a3.93 3.93 0 0 1-1.27 1.32c-.49.3-1.04.45-1.65.45h-.01ZM338.836 57.975v-9.93h2.34v2.18c.28-.79.63-1.37 1.05-1.77.42-.39.91-.59 1.47-.59.19.01.36.03.49.05.13.02.28.08.44.17v2.18a2.931 2.931 0 0 0-1.2-.26c-.49 0-.92.13-1.31.4s-.7.64-.93 1.11v6.46H338.836ZM346.531 46.195c-.38 0-.7-.15-.98-.44-.27-.29-.41-.65-.41-1.07 0-.42.14-.76.41-1.05.27-.29.6-.44.99-.44s.7.14.98.43c.27.29.41.64.41 1.06 0 .42-.14.76-.41 1.06-.27.3-.61.45-.99.45Zm-1.17 11.78v-9.93h2.34v9.93h-2.34ZM353.406 58.165c-.97 0-1.71-.25-2.22-.75-.5-.5-.76-1.22-.76-2.16v-5.24h-1.84v-1.98h1.84v-2.73l2.34-.51v3.24h2.52v1.98h-2.52v4.71c0 .46.1.79.29.99.19.2.51.3.95.3.21 0 .4-.02.58-.05.18-.03.4-.09.67-.19v2.08a6.4 6.4 0 0 1-.91.22c-.34.05-.65.08-.93.08l-.01.01Z"/><path fill="#050D4F" d="M357.105 62.275c-.35 0-.72-.05-1.1-.16v-2.14a3.91 3.91 0 0 0 .82.1c.38 0 .68-.1.91-.29.23-.19.43-.46.58-.81l.33-.88-3.45-10.05h2.57l2.21 7.07 2.43-7.07h2.54l-4.34 11.46c-.26.68-.54 1.22-.84 1.63-.3.41-.67.7-1.1.87-.43.17-.95.27-1.56.27ZM363.227 61.295l1.26-5.4h2.34l-1.9 5.4h-1.7ZM374.441 57.975v-11.44h-4.23v-2.3h10.95v2.3h-4.23v11.44H374.441ZM381.188 57.975v-9.93h2.339v2.18c.28-.79.631-1.37 1.051-1.77.42-.39.91-.59 1.47-.59.19.01.36.03.49.05.13.02.28.08.44.17v2.18a2.931 2.931 0 0 0-1.201-.26c-.49 0-.92.13-1.31.4s-.699.64-.929 1.11v6.46H381.188ZM390.736 58.135c-.62 0-1.17-.15-1.64-.44-.47-.29-.85-.71-1.11-1.24-.27-.53-.4-1.13-.4-1.82v-6.59h2.36v5.87c0 .68.17 1.22.5 1.62.33.4.79.6 1.36.6.39 0 .74-.09 1.05-.27.31-.18.58-.45.81-.81v-7.01h2.34v9.93h-2.34v-1.61a3.93 3.93 0 0 1-1.27 1.32c-.49.3-1.04.45-1.65.45h-.01ZM400.804 58.165c-.8 0-1.55-.11-2.25-.33a5.36 5.36 0 0 1-1.82-.96l1.09-1.69c.62.39 1.15.67 1.6.84.45.17.9.25 1.36.25.51 0 .92-.11 1.22-.32.3-.22.46-.5.46-.85 0-.28-.09-.49-.27-.65-.18-.16-.47-.27-.88-.35l-1.66-.31c-.9-.17-1.57-.49-2.02-.96-.45-.47-.67-1.07-.67-1.81 0-.65.15-1.21.46-1.68.3-.46.73-.83 1.28-1.08.55-.25 1.19-.38 1.92-.38.65 0 1.27.1 1.88.29.61.2 1.21.49 1.81.88l-1.09 1.65a5.18 5.18 0 0 0-1.37-.72c-.45-.15-.91-.23-1.37-.23-.46 0-.79.09-1.04.27-.25.18-.38.43-.38.75 0 .27.08.49.25.64.17.15.47.26.91.32l1.66.35c.92.17 1.62.49 2.07.96.46.47.68 1.07.68 1.81 0 .63-.17 1.19-.51 1.69-.34.5-.8.89-1.37 1.18-.57.29-1.22.43-1.95.43v.01ZM409.515 58.165c-.97 0-1.71-.25-2.22-.75-.5-.5-.76-1.22-.76-2.16v-5.24h-1.84v-1.98h1.84v-2.73l2.34-.51v3.24h2.52v1.98h-2.52v4.71c0 .46.1.79.29.99.19.2.51.3.95.3.21 0 .4-.02.58-.05.18-.03.4-.09.67-.19v2.08a6.4 6.4 0 0 1-.91.22c-.34.05-.65.08-.93.08l-.01.01ZM418.168 58.155c-.63 0-1.2-.13-1.69-.39s-.871-.62-1.141-1.07c-.27-.45-.399-.97-.399-1.56 0-.59.139-1.12.429-1.56.29-.44.69-.77 1.22-1 .53-.23 1.161-.34 1.891-.34.4 0 .8.05 1.2.14.4.09.79.24 1.2.43v-1c0-.6-.17-1.05-.5-1.35-.33-.3-.851-.45-1.541-.45-.37 0-.759.06-1.199.17-.43.11-.92.3-1.47.58l-.801-1.81c1.4-.69 2.71-1.04 3.94-1.04s2.181.32 2.861.96c.68.64 1.01 1.54 1.01 2.71v6.42h-2.3v-.96c-.4.39-.821.68-1.261.86-.44.18-.919.27-1.439.27l-.01-.01Zm-1.06-3.07c0 .42.16.75.47.98.31.24.73.35 1.27.35.38 0 .73-.06 1.07-.18.33-.12.65-.31.96-.57v-1.51c-.32-.12-.63-.21-.95-.29a4.76 4.76 0 0 0-1.02-.11c-.56 0-1 .11-1.31.34-.32.23-.47.55-.47.97l-.02.02ZM424.69 57.975v-9.93h2.34v1.63c.35-.59.78-1.03 1.27-1.33.49-.3 1.04-.45 1.63-.45.59 0 1.17.15 1.64.45.47.3.85.71 1.12 1.24.27.52.41 1.13.41 1.83v6.58h-2.34v-5.87c0-.68-.17-1.22-.52-1.61-.35-.39-.81-.59-1.38-.59-.37 0-.71.09-1.03.27-.32.18-.59.44-.81.79v7.01h-2.34l.01-.02ZM438.314 58.075c-.77 0-1.47-.23-2.1-.69-.63-.46-1.13-1.07-1.5-1.83-.37-.76-.55-1.61-.55-2.55 0-.94.19-1.79.58-2.55.38-.76.9-1.36 1.55-1.82.65-.45 1.38-.68 2.18-.68.51 0 .99.11 1.44.32.45.21.84.53 1.17.95v-5.32l2.34-.41v14.47h-2.32v-1.3a3.433 3.433 0 0 1-2.79 1.39v.02Zm.73-2.1c.43 0 .81-.08 1.15-.25.34-.17.64-.42.89-.75v-3.93c-.25-.31-.56-.56-.91-.73-.35-.17-.73-.25-1.13-.25-.49 0-.92.13-1.31.38s-.7.61-.93 1.05c-.23.45-.35.95-.35 1.51s.12 1.07.35 1.51c.23.44.54.8.92 1.06s.82.39 1.32.39v.01ZM448.395 57.975v-13.74h5.84c.85 0 1.61.18 2.26.54.66.36 1.17.85 1.53 1.48.36.63.55 1.36.55 2.2 0 .89-.23 1.67-.68 2.34-.45.67-1.06 1.16-1.83 1.47l2.7 5.71h-2.76l-2.41-5.38h-2.76v5.38h-2.46.02Zm2.46-7.48h3.16c.62 0 1.12-.18 1.5-.55.38-.37.57-.86.57-1.47s-.19-1.1-.57-1.46c-.38-.36-.88-.54-1.5-.54h-3.16v4.02ZM463.567 58.165c-.9 0-1.71-.23-2.42-.68-.71-.45-1.28-1.07-1.71-1.85-.43-.78-.64-1.65-.64-2.62 0-.97.2-1.86.59-2.63.39-.77.94-1.38 1.62-1.83a4.16 4.16 0 0 1 2.33-.68c.87 0 1.61.23 2.27.68.66.45 1.19 1.06 1.57 1.83.38.77.58 1.66.58 2.65v.59h-6.68c.08.5.25.93.48 1.31.23.38.54.66.9.87.37.21.76.31 1.19.31.43 0 .81-.08 1.18-.24.37-.16.68-.38.92-.67l1.51 1.45c-.56.52-1.14.9-1.73 1.14-.6.24-1.25.35-1.97.35l.01.02Zm-2.47-6.02h4.47c-.08-.45-.23-.83-.45-1.17-.21-.33-.47-.6-.78-.79-.3-.19-.65-.29-1.02-.29s-.72.09-1.03.28c-.31.18-.57.44-.77.78-.2.33-.34.73-.43 1.19h.01ZM468.875 57.975v-14.05l2.34-.41v14.47h-2.34v-.01ZM473.921 46.195c-.38 0-.7-.15-.98-.44-.27-.29-.41-.65-.41-1.07 0-.42.14-.76.41-1.05.27-.29.6-.44.99-.44s.7.14.98.43c.27.29.41.64.41 1.06 0 .42-.14.76-.41 1.06-.27.3-.61.45-.99.45Zm-1.17 11.78v-9.93h2.34v9.93h-2.34ZM479.425 58.155c-.63 0-1.2-.13-1.69-.39s-.87-.62-1.14-1.07c-.27-.45-.4-.97-.4-1.56 0-.59.14-1.12.43-1.56.29-.44.69-.77 1.22-1 .53-.23 1.16-.34 1.89-.34.4 0 .8.05 1.2.14.4.09.79.24 1.2.43v-1c0-.6-.17-1.05-.5-1.35-.33-.3-.85-.45-1.54-.45-.37 0-.76.06-1.2.17-.43.11-.92.3-1.47.58l-.8-1.81c1.4-.69 2.71-1.04 3.94-1.04s2.18.32 2.86.96c.68.64 1.01 1.54 1.01 2.71v6.42h-2.3v-.96c-.4.39-.82.68-1.26.86-.44.18-.92.27-1.44.27l-.01-.01Zm-1.06-3.07c0 .42.16.75.47.98.31.24.73.35 1.27.35.38 0 .73-.06 1.07-.18.33-.12.65-.31.96-.57v-1.51c-.32-.12-.63-.21-.95-.29a4.76 4.76 0 0 0-1.02-.11c-.56 0-1 .11-1.31.34-.32.23-.47.55-.47.97l-.02.02ZM485.945 57.975v-14l2.34-.41v5.79c.32-.45.72-.79 1.2-1.03.49-.24 1.02-.36 1.59-.36.78 0 1.48.23 2.1.69.62.46 1.11 1.07 1.48 1.83.37.76.55 1.61.55 2.55 0 .94-.19 1.78-.57 2.54-.38.77-.89 1.37-1.54 1.83-.65.45-1.38.68-2.18.68-.54 0-1.03-.12-1.49-.35-.46-.23-.85-.56-1.18-.98v1.24h-2.3v-.02Zm4.38-2c.51 0 .96-.13 1.34-.38.38-.25.69-.61.91-1.05.22-.45.34-.96.34-1.53 0-.57-.11-1.06-.34-1.5-.23-.44-.53-.79-.92-1.04s-.83-.38-1.33-.38c-.43 0-.81.09-1.16.26-.35.17-.64.42-.88.75v3.89c.25.31.56.56.91.74.35.18.73.26 1.13.26v-.02ZM497.515 46.195c-.38 0-.7-.15-.98-.44-.27-.29-.41-.65-.41-1.07 0-.42.14-.76.41-1.05.27-.29.6-.44.99-.44s.7.14.98.43c.27.29.41.64.41 1.06 0 .42-.14.76-.41 1.06-.27.3-.61.45-.99.45Zm-1.17 11.78v-9.93h2.34v9.93h-2.34ZM500.258 57.975v-14.05l2.34-.41v14.47h-2.34v-.01ZM505.296 46.195c-.38 0-.7-.15-.98-.44-.27-.29-.41-.65-.41-1.07 0-.42.14-.76.41-1.05.27-.29.6-.44.99-.44s.7.14.98.43c.27.29.41.64.41 1.06 0 .42-.14.76-.41 1.06-.27.3-.61.45-.99.45Zm-1.17 11.78v-9.93h2.34v9.93h-2.34ZM512.179 58.165c-.97 0-1.71-.25-2.22-.75-.5-.5-.76-1.22-.76-2.16v-5.24h-1.84v-1.98h1.84v-2.73l2.34-.51v3.24h2.52v1.98h-2.52v4.71c0 .46.1.79.29.99.19.2.51.3.95.3.21 0 .4-.02.58-.05.18-.03.4-.09.67-.19v2.08a6.4 6.4 0 0 1-.91.22c-.34.05-.65.08-.93.08l-.01.01Z"/><path fill="#050D4F" d="M515.879 62.275c-.35 0-.72-.05-1.1-.16v-2.14a3.91 3.91 0 0 0 .82.1c.38 0 .68-.1.91-.29.23-.19.43-.46.58-.81l.33-.88-3.45-10.05h2.57l2.21 7.07 2.43-7.07h2.54l-4.34 11.46c-.26.68-.54 1.22-.84 1.63-.3.41-.67.7-1.1.87-.43.17-.95.27-1.56.27ZM175.521 80.775h-5.06v-.57c.32 0 .58-.04.77-.09.19-.05.34-.15.45-.29.1-.14.17-.34.21-.6.04-.26.06-.61.06-1.06v-5.7c0-.4-.02-.73-.05-.99-.03-.26-.1-.47-.19-.62a.75.75 0 0 0-.4-.32c-.17-.06-.41-.1-.7-.12v-.57h4.78v.57c-.29.02-.53.06-.7.12-.18.06-.31.17-.4.32-.09.15-.16.36-.19.62s-.05.59-.05.99v5.7c0 .44.02.8.05 1.06.03.26.1.46.21.6.11.14.26.24.45.29.19.05.45.08.77.09v.57h-.01ZM181.481 78.465c0 .39.01.69.04.91.02.22.08.39.16.51s.2.2.37.23c.17.04.39.07.67.08v.57h-4.46v-.57c.27-.02.49-.05.66-.08.17-.04.29-.11.38-.23.09-.12.15-.27.18-.48.03-.21.04-.49.04-.85v-1.77c0-.56 0-1.01-.03-1.35-.02-.34-.04-.58-.07-.7-.03-.12-.07-.22-.11-.3a.463.463 0 0 0-.21-.18c-.09-.04-.21-.07-.35-.08-.14-.01-.32-.02-.54-.02v-.48l2.74-.54.18 1.25h.06c.31-.4.68-.7 1.11-.92.42-.22.89-.33 1.4-.33.6 0 1.09.08 1.47.25.37.17.71.44 1 .83.16.22.3.5.43.84.12.34.18.82.18 1.42v2c0 .39.01.69.04.91.02.22.08.39.16.51s.2.2.36.23c.16.04.38.07.65.08v.57h-4.44v-.57c.28 0 .51-.04.67-.08.17-.04.29-.12.38-.23.09-.11.14-.28.17-.49.03-.21.04-.49.04-.84v-1.93c0-.48-.03-.89-.08-1.22-.06-.33-.15-.6-.28-.8-.13-.2-.3-.35-.5-.44-.21-.09-.47-.13-.78-.13-.31 0-.56.08-.78.25-.22.17-.41.41-.57.71-.09.17-.16.39-.22.66s-.09.55-.09.84v1.96h-.03ZM196.489 79.865h-.06c-.65.7-1.5 1.05-2.54 1.05-.54 0-1.03-.09-1.48-.28-.45-.19-.84-.45-1.16-.79-.33-.34-.58-.74-.76-1.21-.18-.47-.27-.99-.27-1.55s.09-1.09.28-1.57c.18-.48.43-.9.75-1.25s.7-.63 1.13-.83c.44-.2.92-.3 1.42-.3.47 0 .89.07 1.25.21.36.14.68.38.96.72h.06v-1.21c0-.56 0-1.04-.02-1.44-.01-.4-.04-.66-.06-.79-.05-.2-.19-.34-.43-.43-.24-.09-.61-.13-1.11-.13v-.48l3.59-.57v8.11c0 .71 0 1.25.02 1.64.01.38.04.67.08.87.02.12.05.22.08.3.04.08.09.13.17.18.08.04.18.07.3.08.13.01.29.02.49.02v.55l-2.69.16v-1.06Zm-.44-3.16c0-.36-.04-.69-.11-1-.08-.31-.19-.58-.34-.81a1.75 1.75 0 0 0-.65-.62c-.26-.14-.55-.21-.85-.21-.56 0-.98.25-1.28.77-.29.51-.44 1.25-.44 2.23s.15 1.74.44 2.27c.29.53.71.79 1.26.79.31 0 .61-.08.89-.24.28-.16.52-.38.7-.65.13-.21.23-.46.29-.77.06-.31.09-.7.09-1.18V76.705ZM204.691 78.445c0 .38.01.68.04.91.03.23.08.4.17.52.08.12.21.21.37.25.16.04.38.07.65.08v.57h-4.46v-.57c.26 0 .48-.04.64-.09.17-.05.29-.14.38-.25.09-.11.15-.28.18-.5.03-.22.05-.48.05-.82v-1.74c0-.55 0-1-.03-1.35-.02-.35-.04-.6-.07-.73-.05-.24-.15-.39-.32-.47-.17-.08-.47-.11-.9-.11v-.48l3.29-.54v5.33l.01-.01Zm-2.09-8.33c0-.31.11-.57.32-.79.21-.21.47-.32.77-.32.3 0 .57.11.79.32.22.21.32.47.32.79 0 .32-.11.56-.32.77-.21.21-.47.32-.79.32-.32 0-.56-.11-.77-.32-.21-.21-.32-.47-.32-.77ZM212.57 75.985v-.59c0-.55-.1-.95-.29-1.2-.19-.25-.49-.38-.9-.38-.27 0-.48.07-.62.22s-.27.39-.4.73c-.08.24-.21.42-.36.55-.16.13-.37.2-.65.2s-.47-.08-.61-.24c-.14-.16-.21-.39-.21-.68 0-.45.25-.81.74-1.08s1.25-.4 2.25-.4c1.06 0 1.81.19 2.27.57.45.38.68 1.02.68 1.92v3.1c0 .8.16 1.21.48 1.21.18 0 .34-.06.5-.18l.21.41c-.13.24-.34.42-.62.56-.28.14-.59.21-.94.21-.43 0-.76-.13-.99-.4-.23-.26-.34-.64-.34-1.12h-.07c-.27.49-.63.86-1.06 1.12-.43.25-.93.38-1.49.38-.6 0-1.07-.17-1.43-.5-.36-.33-.54-.77-.54-1.31 0-.42.18-.81.55-1.17.37-.36.98-.72 1.84-1.07l2-.87v.01Zm0 .75c-.79.36-1.39.69-1.79 1-.4.31-.6.63-.6.96 0 .27.08.49.23.65.15.16.34.24.57.24a1.695 1.695 0 0 0 1.15-.44 1.427 1.427 0 0 0 .45-1.06v-1.35h-.01ZM220.997 78.465c0 .39.01.69.04.91.02.22.08.39.16.51s.2.2.37.23c.17.04.39.07.67.08v.57h-4.46v-.57c.27-.02.49-.05.66-.08.17-.04.29-.11.38-.23.09-.12.15-.27.18-.48.03-.21.04-.49.04-.85v-1.77c0-.56 0-1.01-.03-1.35-.02-.34-.04-.58-.07-.7-.03-.12-.07-.22-.11-.3a.463.463 0 0 0-.21-.18c-.09-.04-.21-.07-.35-.08-.14-.01-.32-.02-.54-.02v-.48l2.74-.54.18 1.25h.06c.31-.4.68-.7 1.11-.92.42-.22.89-.33 1.4-.33.6 0 1.09.08 1.47.25.37.17.71.44 1 .83.16.22.3.5.43.84.12.34.18.82.18 1.42v2c0 .39.01.69.04.91.02.22.08.39.16.51s.2.2.36.23c.16.04.38.07.65.08v.57h-4.44v-.57c.28 0 .51-.04.67-.08.17-.04.29-.12.38-.23.09-.11.14-.28.17-.49.03-.21.04-.49.04-.84v-1.93c0-.48-.03-.89-.08-1.22-.06-.33-.15-.6-.28-.8-.13-.2-.3-.35-.5-.44-.21-.09-.47-.13-.78-.13-.31 0-.56.08-.78.25-.22.17-.41.41-.57.71-.09.17-.16.39-.22.66s-.09.55-.09.84v1.96h-.03ZM241.474 80.775h-5.06v-.57c.32 0 .58-.04.77-.09.19-.05.34-.15.45-.29.1-.14.17-.34.21-.6.04-.26.06-.61.06-1.06v-5.7c0-.4-.02-.73-.05-.99-.03-.26-.1-.47-.19-.62a.75.75 0 0 0-.4-.32c-.17-.06-.41-.1-.7-.12v-.57h4.78v.57c-.29.02-.53.06-.7.12-.18.06-.31.17-.4.32-.09.15-.16.36-.19.62s-.05.59-.05.99v5.7c0 .44.02.8.05 1.06.03.26.1.46.21.6.11.14.26.24.45.29.19.05.45.08.77.09v.57h-.01ZM247.45 78.465c0 .39.01.69.04.91.02.22.08.39.16.51s.2.2.37.23c.17.04.39.07.67.08v.57h-4.46v-.57c.27-.02.49-.05.66-.08.17-.04.29-.11.38-.23.09-.12.15-.27.18-.48.03-.21.04-.49.04-.85v-1.77c0-.56 0-1.01-.03-1.35-.02-.34-.04-.58-.07-.7-.03-.12-.07-.22-.11-.3a.463.463 0 0 0-.21-.18c-.09-.04-.21-.07-.35-.08-.14-.01-.32-.02-.54-.02v-.48l2.74-.54.18 1.25h.06c.31-.4.68-.7 1.11-.92.42-.22.89-.33 1.4-.33.6 0 1.09.08 1.47.25.37.17.71.44 1 .83.16.22.3.5.43.84.12.34.18.82.18 1.42v2c0 .39.01.69.04.91.02.22.08.39.16.51s.2.2.36.23c.16.04.38.07.65.08v.57h-4.44v-.57c.28 0 .51-.04.67-.08.17-.04.29-.12.38-.23.09-.11.14-.28.17-.49.03-.21.04-.49.04-.84v-1.93c0-.48-.03-.89-.08-1.22-.06-.33-.15-.6-.28-.8-.13-.2-.3-.35-.5-.44-.21-.09-.47-.13-.78-.13-.31 0-.56.08-.78.25-.22.17-.41.41-.57.71-.09.17-.16.39-.22.66s-.09.55-.09.84v1.96h-.03ZM256.846 80.775h-.44v-2.58h.59c.16.68.39 1.18.7 1.49.3.31.69.47 1.18.47.35 0 .62-.07.82-.22a.73.73 0 0 0 .29-.6c0-.25-.12-.52-.35-.77-.24-.25-.62-.52-1.15-.8-.72-.39-1.23-.77-1.54-1.15-.31-.38-.47-.82-.47-1.3 0-.31.06-.6.18-.87s.28-.5.48-.7c.2-.2.45-.35.73-.46.28-.11.59-.16.92-.16.29 0 .58.04.87.13.29.09.54.2.76.35l.25-.34h.37v2.14h-.55c-.22-.54-.44-.93-.67-1.16a1.11 1.11 0 0 0-.84-.35c-.26 0-.47.07-.63.21-.16.14-.23.33-.23.57 0 .26.12.51.35.75.23.24.62.5 1.16.78.38.21.7.41.98.61.27.2.5.4.67.6.17.2.29.42.38.64.08.22.12.46.12.72 0 .33-.06.63-.18.89s-.3.49-.52.68c-.23.19-.5.33-.81.44-.32.1-.67.16-1.06.16-.41 0-.79-.05-1.13-.16-.34-.11-.64-.27-.86-.47l-.31.5-.06-.04ZM264.125 74.045v-.64c.57-.16 1.04-.4 1.42-.73.38-.33.67-.7.86-1.13h.72v1.71h1.63v.78h-1.63v4.35c0 .59.06 1 .19 1.25s.34.37.64.37c.37 0 .65-.17.84-.51l.3.41c-.26.67-.89 1.01-1.87 1.01-.65 0-1.16-.15-1.52-.45-.36-.3-.55-.73-.55-1.28v-5.14h-1.03ZM274.37 78.445c0 .38.01.68.04.91.03.23.08.4.17.52.08.12.21.21.37.25.16.04.38.07.65.08v.57h-4.46v-.57c.26 0 .48-.04.64-.09.17-.05.29-.14.38-.25.09-.11.15-.28.18-.5.03-.22.05-.48.05-.82v-1.74c0-.55 0-1-.03-1.35-.02-.35-.04-.6-.07-.73-.05-.24-.15-.39-.32-.47-.17-.08-.47-.11-.9-.11v-.48l3.29-.54v5.33l.01-.01Zm-2.09-8.33c0-.31.11-.57.32-.79.21-.21.47-.32.77-.32.3 0 .57.11.79.32.22.21.32.47.32.79 0 .32-.11.56-.32.77-.21.21-.47.32-.79.32-.32 0-.56-.11-.77-.32-.21-.21-.32-.47-.32-.77ZM277.719 74.045v-.64c.57-.16 1.04-.4 1.42-.73.38-.33.67-.7.86-1.13h.72v1.71h1.63v.78h-1.63v4.35c0 .59.06 1 .19 1.25s.34.37.64.37c.37 0 .65-.17.84-.51l.3.41c-.26.67-.89 1.01-1.87 1.01-.65 0-1.16-.15-1.52-.45-.36-.3-.55-.73-.55-1.28v-5.14h-1.03ZM290.909 75.585c0-.38 0-.68-.03-.9-.02-.22-.07-.39-.16-.51a.602.602 0 0 0-.38-.24c-.17-.04-.39-.08-.67-.11v-.57h3.2v4.29c0 .58 0 1.03.02 1.35.01.33.04.57.08.73.03.12.06.22.1.29.04.07.1.13.18.17.08.04.2.07.35.08.15.01.34.02.57.02v.55l-2.82.17-.16-1.26h-.06c-.25.4-.59.7-1.04.92-.44.22-.94.33-1.49.33-1.01 0-1.78-.36-2.31-1.08-.41-.55-.61-1.33-.61-2.34v-1.91c0-.39 0-.69-.03-.91-.02-.22-.07-.39-.15-.5a.614.614 0 0 0-.36-.23c-.16-.04-.38-.08-.67-.11v-.57h3.17v4.01c0 .95.12 1.65.35 2.08.24.43.61.65 1.13.65.56 0 .99-.26 1.29-.77.3-.49.45-1.21.45-2.17v-1.47l.05.01ZM296.25 74.045v-.64c.57-.16 1.04-.4 1.42-.73.38-.33.67-.7.86-1.13h.72v1.71h1.63v.78h-1.63v4.35c0 .59.06 1 .19 1.25s.34.37.64.37c.37 0 .65-.17.84-.51l.3.41c-.26.67-.89 1.01-1.87 1.01-.65 0-1.16-.15-1.52-.45-.36-.3-.55-.73-.55-1.28v-5.14h-1.03ZM310.501 79.455c-.86.97-1.93 1.46-3.22 1.46-.59 0-1.12-.09-1.59-.28-.47-.19-.89-.44-1.23-.78-.34-.34-.61-.73-.79-1.2-.19-.46-.28-.98-.28-1.54s.1-1.12.3-1.61c.2-.49.48-.91.84-1.26s.79-.63 1.29-.83c.5-.2 1.04-.3 1.64-.3 1 0 1.78.27 2.34.81.56.54.84 1.29.84 2.27 0 .15-.02.24-.07.28-.05.03-.18.05-.4.05h-4.56c-.04.08-.06.24-.06.47 0 .93.2 1.66.6 2.2.4.54.95.81 1.64.81.4 0 .79-.09 1.18-.27.39-.18.77-.43 1.14-.77l.4.5-.01-.01Zm-2.75-3.73c.38 0 .62-.02.73-.06.11-.04.16-.14.16-.3 0-.42-.12-.76-.35-1.02-.24-.26-.53-.4-.89-.4-.41 0-.77.17-1.08.5-.32.34-.52.76-.62 1.28h2.06-.01ZM324.028 73.115c.57 0 1.1.1 1.61.29.51.19.95.46 1.33.8.38.34.69.74.91 1.21.22.47.33.98.33 1.54s-.11 1.11-.33 1.59c-.22.48-.52.9-.91 1.25-.38.35-.83.62-1.33.82-.51.2-1.04.3-1.61.3-.57 0-1.09-.1-1.59-.29-.5-.19-.94-.47-1.32-.82a3.71 3.71 0 0 1-.89-1.25c-.22-.49-.33-1.02-.33-1.59 0-.57.11-1.07.33-1.54.22-.47.51-.88.89-1.22.38-.34.82-.6 1.32-.79.5-.19 1.03-.28 1.59-.28v-.02Zm0 .83c-.28 0-.54.07-.78.22s-.44.35-.6.62c-.17.26-.29.58-.38.96-.09.37-.13.79-.13 1.24 0 .45.04.9.13 1.28s.22.7.38.96c.17.26.36.47.59.62.23.15.49.22.79.22.3 0 .56-.07.8-.22s.45-.35.62-.62c.17-.27.3-.59.4-.97.09-.38.14-.8.14-1.26 0-.46-.05-.86-.14-1.23-.09-.37-.23-.69-.4-.96s-.38-.48-.62-.62-.51-.22-.8-.22v-.02ZM330.508 73.265h1.53v-.79c0-.51.09-.98.26-1.4.17-.43.42-.79.73-1.1.31-.31.69-.54 1.13-.71.44-.17.93-.25 1.47-.25.32 0 .62.03.89.09s.5.14.7.25c.2.1.35.23.46.38.11.15.16.31.16.48 0 .22-.08.4-.24.54-.16.14-.36.21-.61.21-.17 0-.32-.06-.45-.17-.13-.11-.32-.32-.57-.62a.983.983 0 0 0-.35-.28.995.995 0 0 0-.38-.08c-.38 0-.68.23-.89.69-.22.46-.33 1.09-.33 1.89v.88h2.4v.78h-2.4v4.38c0 .36.02.65.06.88.04.23.12.41.24.54.12.13.28.22.47.28.19.06.45.08.77.09v.57h-4.79v-.57c.28 0 .51-.04.68-.08.17-.04.3-.12.38-.24.08-.12.14-.28.17-.5.03-.22.04-.5.04-.86v-4.49h-1.53v-.79ZM355.937 72.975h-.61c-.03-.46-.1-.85-.21-1.16-.11-.31-.26-.55-.46-.74-.2-.18-.44-.31-.72-.38-.28-.07-.61-.11-.99-.11s-.66 0-.89.02c-.22.01-.39.04-.51.07-.12.03-.2.08-.23.13a.37.37 0 0 0-.06.21v7.43c0 .3.02.56.06.78.04.22.13.4.26.53.13.14.33.24.58.31.26.07.59.11 1.01.12v.57h-5.94v-.57c.43 0 .77-.05 1.02-.12.26-.07.45-.17.59-.31.14-.14.23-.31.27-.53.04-.22.06-.48.06-.78v-7.43c0-.08-.02-.16-.05-.21-.03-.05-.1-.1-.21-.13-.1-.03-.25-.06-.45-.07-.19-.01-.45-.02-.76-.02-.34 0-.67.02-.98.05-.31.03-.59.13-.82.28-.24.16-.43.39-.57.71-.15.32-.22.76-.23 1.34h-.55l.14-3.12h11.1l.14 3.12.01.01ZM364.141 79.455c-.86.97-1.93 1.46-3.22 1.46-.59 0-1.12-.09-1.59-.28-.47-.19-.89-.44-1.23-.78-.34-.34-.61-.73-.79-1.2-.19-.46-.28-.98-.28-1.54s.1-1.12.3-1.61c.2-.49.48-.91.84-1.26s.79-.63 1.29-.83c.5-.2 1.04-.3 1.64-.3 1 0 1.78.27 2.34.81.56.54.84 1.29.84 2.27 0 .15-.02.24-.07.28-.05.03-.18.05-.4.05h-4.56c-.04.08-.06.24-.06.47 0 .93.2 1.66.6 2.2.4.54.95.81 1.64.81.4 0 .79-.09 1.18-.27.39-.18.77-.43 1.14-.77l.4.5-.01-.01Zm-2.75-3.73c.38 0 .62-.02.73-.06.11-.04.16-.14.16-.3 0-.42-.12-.76-.35-1.02-.24-.26-.53-.4-.89-.4-.41 0-.77.17-1.08.5-.32.34-.52.76-.62 1.28h2.06-.01ZM373.799 79.595c-.36.4-.81.7-1.34.92-.53.22-1.11.33-1.74.33-.58 0-1.1-.09-1.57-.28-.47-.18-.88-.44-1.22-.77-.34-.33-.6-.73-.79-1.2a4.11 4.11 0 0 1-.28-1.55c0-.56.1-1.12.3-1.6.2-.48.48-.9.84-1.24a3.7 3.7 0 0 1 1.29-.8c.5-.19 1.05-.28 1.66-.28.43 0 .82.04 1.18.13.36.08.68.2.94.35.26.15.47.33.62.53.15.2.23.42.23.66 0 .27-.08.49-.23.65-.16.16-.37.24-.63.24-.22 0-.41-.06-.57-.17-.17-.11-.33-.3-.49-.55-.14-.23-.26-.41-.36-.54-.1-.13-.19-.23-.28-.3a.604.604 0 0 0-.26-.14 1.3 1.3 0 0 0-.31-.04c-.55 0-.97.25-1.28.77-.3.51-.45 1.22-.45 2.14 0 .98.18 1.74.55 2.27.36.53.89.79 1.57.79.39 0 .77-.07 1.16-.22.39-.15.76-.36 1.11-.63l.37.54-.02-.01ZM379.298 78.445c0 .39.01.69.04.91.03.22.08.39.16.52.08.12.2.2.37.24.17.04.39.07.67.08v.57h-4.46v-.57c.28-.02.51-.05.68-.08.17-.04.3-.11.38-.23.08-.12.14-.28.16-.49.02-.21.04-.5.04-.86v-5.83c0-.57 0-1.01-.02-1.34a3.84 3.84 0 0 0-.08-.74c-.03-.12-.06-.22-.1-.29a.424.424 0 0 0-.18-.17c-.08-.04-.19-.07-.33-.09-.14-.01-.31-.02-.52-.02v-.52l3.16-.54v5.23h.06c.29-.39.62-.67.98-.85.36-.18.8-.27 1.31-.27.93 0 1.64.28 2.15.85.25.28.44.63.58 1.03.14.4.21.82.21 1.25v2.2c0 .4 0 .71.03.93.02.22.07.39.15.51.08.12.2.2.36.23.16.04.38.07.67.08v.57h-4.44v-.57c.28 0 .51-.04.67-.08.17-.04.29-.12.38-.23.09-.11.15-.28.17-.49.02-.21.04-.5.04-.86v-1.74c0-1-.11-1.71-.33-2.13-.22-.42-.59-.62-1.12-.62-.57 0-1.02.21-1.35.62-.16.22-.29.49-.38.81-.09.32-.13.68-.13 1.08v1.89l.02.01ZM391.129 78.465c0 .39.01.69.04.91.02.22.08.39.16.51s.2.2.37.23c.17.04.39.07.67.08v.57h-4.46v-.57c.27-.02.49-.05.66-.08.17-.04.29-.11.38-.23.09-.12.15-.27.18-.48.03-.21.04-.49.04-.85v-1.77c0-.56 0-1.01-.03-1.35-.02-.34-.04-.58-.07-.7-.03-.12-.07-.22-.11-.3a.463.463 0 0 0-.21-.18c-.09-.04-.21-.07-.35-.08-.14-.01-.32-.02-.54-.02v-.48l2.74-.54.18 1.25h.06c.31-.4.68-.7 1.11-.92.42-.22.89-.33 1.4-.33.6 0 1.09.08 1.47.25.37.17.71.44 1 .83.16.22.3.5.43.84.12.34.18.82.18 1.42v2c0 .39.01.69.04.91.02.22.08.39.16.51s.2.2.36.23c.16.04.38.07.65.08v.57h-4.44v-.57c.28 0 .51-.04.67-.08.17-.04.29-.12.38-.23.09-.11.14-.28.17-.49.03-.21.04-.49.04-.84v-1.93c0-.48-.03-.89-.08-1.22-.06-.33-.15-.6-.28-.8-.13-.2-.3-.35-.5-.44-.21-.09-.47-.13-.78-.13-.31 0-.56.08-.78.25-.22.17-.41.41-.57.71-.09.17-.16.39-.22.66s-.09.55-.09.84v1.96h-.03ZM403.966 73.115c.57 0 1.1.1 1.61.29.51.19.95.46 1.33.8.38.34.69.74.91 1.21.22.47.33.98.33 1.54s-.11 1.11-.33 1.59c-.22.48-.52.9-.91 1.25-.38.35-.83.62-1.33.82-.51.2-1.04.3-1.61.3-.57 0-1.09-.1-1.59-.29-.5-.19-.94-.47-1.32-.82a3.71 3.71 0 0 1-.89-1.25c-.22-.49-.33-1.02-.33-1.59 0-.57.11-1.07.33-1.54.22-.47.51-.88.89-1.22.38-.34.82-.6 1.32-.79.5-.19 1.03-.28 1.59-.28v-.02Zm0 .83c-.28 0-.54.07-.78.22s-.44.35-.6.62c-.17.26-.29.58-.38.96-.09.37-.13.79-.13 1.24 0 .45.04.9.13 1.28s.22.7.38.96c.17.26.36.47.59.62.23.15.49.22.79.22.3 0 .56-.07.8-.22s.45-.35.62-.62c.17-.27.3-.59.4-.97.09-.38.14-.8.14-1.26 0-.46-.05-.86-.14-1.23-.09-.37-.23-.69-.4-.96s-.38-.48-.62-.62-.51-.22-.8-.22v-.02ZM413.706 78.445c0 .38.01.68.04.91.03.23.08.4.17.52.08.12.21.21.37.25.16.04.38.07.65.08v.57h-4.46v-.57c.26 0 .48-.04.64-.09.16-.05.29-.14.38-.25.09-.11.15-.28.18-.5.03-.22.05-.48.05-.82v-5.85c0-.55 0-1-.03-1.35-.02-.35-.04-.6-.07-.73-.05-.24-.15-.39-.32-.47-.17-.08-.46-.11-.9-.11v-.48l3.29-.54v9.44l.01-.01ZM421.419 73.115c.57 0 1.1.1 1.61.29.51.19.95.46 1.33.8.38.34.69.74.91 1.21.22.47.33.98.33 1.54s-.11 1.11-.33 1.59c-.22.48-.52.9-.91 1.25-.38.35-.83.62-1.33.82-.51.2-1.04.3-1.61.3-.57 0-1.09-.1-1.59-.29-.5-.19-.94-.47-1.32-.82a3.71 3.71 0 0 1-.89-1.25c-.22-.49-.33-1.02-.33-1.59 0-.57.11-1.07.33-1.54.22-.47.51-.88.89-1.22.38-.34.82-.6 1.32-.79.5-.19 1.03-.28 1.59-.28v-.02Zm0 .83c-.28 0-.54.07-.78.22s-.44.35-.6.62c-.17.26-.29.58-.38.96-.09.37-.13.79-.13 1.24 0 .45.04.9.13 1.28s.22.7.38.96c.17.26.36.47.59.62.23.15.49.22.79.22.3 0 .56-.07.8-.22s.45-.35.62-.62c.17-.27.3-.59.4-.97.09-.38.14-.8.14-1.26 0-.46-.05-.86-.14-1.23-.09-.37-.23-.69-.4-.96s-.38-.48-.62-.62-.51-.22-.8-.22v-.02ZM431.164 79.245c.26.02.48.04.67.06.19.02.38.04.55.06l.52.07c.17.02.36.05.56.08.74.1 1.32.38 1.74.83.42.45.63 1 .63 1.67 0 .8-.33 1.41-.99 1.83-.66.42-1.63.62-2.92.62-1.18 0-2.09-.17-2.73-.52-.64-.35-.96-.83-.96-1.47 0-.49.13-.86.38-1.11.25-.25.58-.38.96-.38.25 0 .48.05.72.15.23.1.43.24.59.43-.25.05-.45.16-.6.33-.16.17-.23.38-.23.62 0 .38.17.67.5.87.34.2.83.3 1.48.3 1.42 0 2.13-.45 2.13-1.35 0-.32-.11-.6-.32-.83-.21-.23-.52-.37-.91-.42l-2.48-.34c-1.05-.14-1.57-.61-1.57-1.4 0-.39.13-.7.38-.95s.61-.42 1.07-.51v-.06c-.22-.09-.41-.2-.59-.35a2.411 2.411 0 0 1-.76-1.17c-.07-.23-.11-.47-.11-.72 0-.35.07-.68.22-.98.15-.31.35-.57.61-.79.26-.22.57-.39.92-.52.35-.13.74-.19 1.16-.19.42 0 .8.06 1.19.18.39.12.72.29.99.51.22-.13.41-.24.57-.33a2.955 2.955 0 0 1 .83-.32c.11-.02.23-.04.34-.04.36 0 .65.08.87.24.22.16.33.37.33.64 0 .2-.06.36-.18.49s-.28.19-.48.19c-.14 0-.25-.03-.34-.09-.09-.06-.17-.13-.25-.21-.08-.08-.16-.15-.25-.21a.593.593 0 0 0-.34-.09c-.2 0-.39.13-.57.38.09.16.16.33.2.52.04.18.06.4.06.65 0 .36-.06.69-.17.99-.11.3-.29.57-.53.8-.24.23-.55.43-.93.59-.38.16-.84.27-1.38.33-.45.05-.77.11-.94.18-.18.08-.26.19-.26.34 0 .23.21.36.64.4h-.02Zm.68-1.73c.3 0 .54-.16.71-.48.17-.32.25-.77.25-1.35 0-.58-.08-1.04-.25-1.35-.17-.32-.41-.47-.72-.47s-.58.16-.76.48c-.19.32-.28.76-.28 1.32s.1 1.02.29 1.35c.19.34.45.5.77.5h-.01ZM442.604 82.995c-.1.21-.23.4-.39.58-.16.18-.33.33-.52.46s-.39.23-.6.3c-.21.08-.42.11-.62.11-.31 0-.56-.08-.75-.23-.19-.15-.28-.35-.28-.61 0-.24.08-.42.25-.55.17-.13.43-.21.8-.24.84-.07 1.38-.33 1.63-.79l.38-.74-2.51-6.21a9.56 9.56 0 0 0-.29-.65c-.08-.16-.17-.29-.26-.38a.67.67 0 0 0-.33-.18c-.12-.03-.27-.05-.45-.06v-.57h4.29v.57c-.37 0-.63.04-.77.11-.15.07-.22.2-.22.39 0 .08.01.16.04.26.02.1.05.2.09.31l1.45 4.14h.06l1.22-2.76c.12-.29.23-.54.31-.73.08-.19.15-.36.19-.5.04-.14.07-.25.09-.33.02-.08.03-.17.03-.25 0-.25-.07-.41-.21-.5-.14-.08-.41-.13-.83-.13v-.57h3.42v.57c-.19 0-.35.03-.48.08s-.27.16-.4.32c-.14.16-.29.4-.45.72-.17.32-.37.74-.62 1.25l-3.25 6.8-.02.01ZM464.179 78.125l3.27-8.26h4.14v.57c-.31 0-.56.03-.76.09-.19.06-.34.17-.45.33-.1.16-.17.38-.21.66-.03.28-.05.63-.05 1.06v5.5c0 .47.02.85.06 1.12.04.27.11.49.23.64.11.15.28.25.49.3.21.05.49.08.84.08v.57h-5.33v-.57c.35 0 .63-.04.84-.09.21-.05.38-.15.5-.29.12-.14.2-.34.23-.6.03-.26.06-.61.06-1.06v-6.63h-.07l-3.81 9.38h-1.05l-3.94-9.38h-.06v6.53c0 .47.02.85.06 1.12.04.27.11.49.23.64.11.15.28.25.49.3.21.05.49.08.84.08v.57h-4.37v-.57c.35 0 .63-.04.85-.09.22-.05.38-.15.5-.29.12-.14.2-.34.23-.6.03-.26.06-.61.06-1.06v-5.7c0-.4-.02-.73-.06-.99-.04-.26-.11-.48-.21-.63-.1-.16-.25-.26-.45-.33s-.45-.09-.77-.09v-.57h4.29l3.3 8.26h.08ZM478.867 75.985v-.59c0-.55-.1-.95-.29-1.2-.19-.25-.49-.38-.9-.38-.27 0-.48.07-.62.22s-.27.39-.4.73c-.08.24-.21.42-.36.55-.16.13-.37.2-.65.2s-.47-.08-.61-.24c-.14-.16-.21-.39-.21-.68 0-.45.25-.81.74-1.08s1.25-.4 2.25-.4c1.06 0 1.81.19 2.27.57.45.38.68 1.02.68 1.92v3.1c0 .8.16 1.21.48 1.21.18 0 .34-.06.5-.18l.21.41c-.13.24-.34.42-.62.56-.28.14-.59.21-.94.21-.43 0-.76-.13-.99-.4-.23-.26-.34-.64-.34-1.12h-.07c-.27.49-.63.86-1.06 1.12-.43.25-.93.38-1.49.38-.6 0-1.07-.17-1.43-.5-.36-.33-.54-.77-.54-1.31 0-.42.18-.81.55-1.17.37-.36.98-.72 1.84-1.07l2-.87v.01Zm0 .75c-.79.36-1.39.69-1.79 1-.4.31-.6.63-.6.96 0 .27.08.49.23.65.15.16.34.24.57.24a1.695 1.695 0 0 0 1.15-.44 1.427 1.427 0 0 0 .45-1.06v-1.35h-.01ZM490.895 79.865h-.06c-.65.7-1.5 1.05-2.54 1.05-.54 0-1.03-.09-1.48-.28-.45-.19-.84-.45-1.16-.79-.33-.34-.58-.74-.76-1.21-.18-.47-.27-.99-.27-1.55s.09-1.09.28-1.57c.18-.48.43-.9.75-1.25s.7-.63 1.13-.83c.44-.2.92-.3 1.42-.3.47 0 .89.07 1.25.21.36.14.68.38.96.72h.06v-1.21c0-.56 0-1.04-.02-1.44-.01-.4-.04-.66-.06-.79-.05-.2-.19-.34-.43-.43-.24-.09-.61-.13-1.11-.13v-.48l3.59-.57v8.11c0 .71 0 1.25.02 1.64.01.38.04.67.08.87.02.12.05.22.08.3.04.08.09.13.17.18.08.04.18.07.3.08.13.01.29.02.49.02v.55l-2.69.16v-1.06Zm-.44-3.16c0-.36-.04-.69-.11-1-.08-.31-.19-.58-.34-.81a1.75 1.75 0 0 0-.65-.62c-.26-.14-.55-.21-.85-.21-.56 0-.98.25-1.28.77-.29.51-.44 1.25-.44 2.23s.15 1.74.44 2.27c.29.53.71.79 1.26.79.31 0 .61-.08.89-.24.28-.16.52-.38.7-.65.13-.21.23-.46.29-.77.06-.31.09-.7.09-1.18V76.705ZM499.678 78.575c0 .37.02.66.05.87.03.21.1.38.21.49.1.11.25.19.45.22s.46.05.79.05v.57h-4.73v-.57c.28-.02.51-.05.68-.08.17-.04.3-.11.38-.23.08-.12.14-.28.16-.49.02-.21.04-.5.04-.86v-1.73c0-.58-.01-1.05-.04-1.4-.03-.35-.09-.62-.18-.81a.74.74 0 0 0-.4-.38c-.17-.07-.4-.09-.69-.09v-.5l2.83-.52.23 1.63h.06c.25-.5.59-.9 1.01-1.19.42-.29.86-.44 1.32-.44.36 0 .65.09.88.27.23.18.34.41.34.68 0 .3-.09.56-.26.76-.18.21-.41.31-.72.31-.14 0-.27-.03-.38-.08-.11-.05-.21-.12-.3-.19s-.18-.14-.27-.2a.49.49 0 0 0-.28-.09c-.18 0-.35.12-.51.35-.16.24-.29.55-.4.95-.08.28-.14.6-.18.96-.05.35-.07.71-.07 1.06v.68h-.02ZM509.906 75.985v-.59c0-.55-.1-.95-.29-1.2-.19-.25-.49-.38-.9-.38-.27 0-.48.07-.62.22s-.27.39-.4.73c-.08.24-.21.42-.36.55-.16.13-.37.2-.65.2s-.47-.08-.61-.24c-.14-.16-.21-.39-.21-.68 0-.45.25-.81.74-1.08s1.25-.4 2.25-.4c1.06 0 1.81.19 2.27.57.45.38.68 1.02.68 1.92v3.1c0 .8.16 1.21.48 1.21.18 0 .34-.06.5-.18l.21.41c-.13.24-.34.42-.62.56-.28.14-.59.21-.94.21-.43 0-.76-.13-.99-.4-.23-.26-.34-.64-.34-1.12h-.07c-.27.49-.63.86-1.06 1.12-.43.25-.93.38-1.49.38-.6 0-1.07-.17-1.43-.5-.36-.33-.54-.77-.54-1.31 0-.42.18-.81.55-1.17.37-.36.98-.72 1.84-1.07l2-.87v.01Zm0 .75c-.79.36-1.39.69-1.79 1-.4.31-.6.63-.6.96 0 .27.08.49.23.65.15.16.34.24.57.24a1.695 1.695 0 0 0 1.15-.44 1.427 1.427 0 0 0 .45-1.06v-1.35h-.01ZM516.331 80.775h-.44v-2.58h.59c.16.68.39 1.18.7 1.49.3.31.69.47 1.18.47.35 0 .62-.07.82-.22a.73.73 0 0 0 .29-.6c0-.25-.12-.52-.35-.77-.24-.25-.62-.52-1.15-.8-.72-.39-1.23-.77-1.54-1.15-.31-.38-.47-.82-.47-1.3 0-.31.06-.6.18-.87s.28-.5.48-.7c.2-.2.45-.35.73-.46.28-.11.59-.16.92-.16.29 0 .58.04.87.13.29.09.54.2.76.35l.25-.34h.37v2.14h-.55c-.22-.54-.44-.93-.67-1.16a1.11 1.11 0 0 0-.84-.35c-.26 0-.47.07-.63.21-.16.14-.23.33-.23.57 0 .26.12.51.35.75.23.24.62.5 1.16.78.38.21.7.41.98.61.27.2.5.4.67.6.17.2.29.42.38.64.08.22.12.46.12.72 0 .33-.06.63-.18.89s-.3.49-.52.68c-.23.19-.5.33-.81.44-.32.1-.67.16-1.06.16-.41 0-.79-.05-1.13-.16-.34-.11-.64-.27-.86-.47l-.31.5-.06-.04Z"/></svg>